<mxfile host="app.diagrams.net" modified="2020-11-02T02:32:28.619Z" agent="5.0 (Macintosh; Intel Mac OS X 10_15_1) AppleWebKit/537.36 (KHTML, like Gecko) Chrome/86.0.4240.111 Safari/537.36" etag="uIzUy5fTsGnTI7ombEUL" version="13.8.8" type="github">
  <diagram id="o7BJaHzfwVbvE81LBurC" name="Page-1">
    <mxGraphModel dx="1773" dy="1680" grid="1" gridSize="10" guides="1" tooltips="1" connect="1" arrows="1" fold="1" page="1" pageScale="1" pageWidth="827" pageHeight="1169" math="0" shadow="0">
      <root>
        <mxCell id="0" />
        <mxCell id="1" parent="0" />
        <mxCell id="1MLrccxjdp3mu_vWYp1V-21" value="需求单" style="swimlane;startSize=20;horizontal=0;" parent="1" vertex="1">
          <mxGeometry x="-180" y="-50" width="2550" height="240" as="geometry">
            <mxRectangle x="270" y="340" width="30" height="60" as="alternateBounds" />
          </mxGeometry>
        </mxCell>
        <mxCell id="1MLrccxjdp3mu_vWYp1V-1" value="下单" style="strokeWidth=2;html=1;shape=mxgraph.flowchart.terminator;whiteSpace=wrap;" parent="1MLrccxjdp3mu_vWYp1V-21" vertex="1">
          <mxGeometry x="160" y="110" width="80" height="40" as="geometry" />
        </mxCell>
        <mxCell id="1MLrccxjdp3mu_vWYp1V-3" style="edgeStyle=none;rounded=0;orthogonalLoop=1;jettySize=auto;html=1;exitX=1;exitY=0.5;exitDx=0;exitDy=0;exitPerimeter=0;" parent="1MLrccxjdp3mu_vWYp1V-21" source="1MLrccxjdp3mu_vWYp1V-1" target="SHjtx8wU5vL2sY_37cBv-20" edge="1">
          <mxGeometry relative="1" as="geometry">
            <mxPoint x="170" y="80" as="sourcePoint" />
            <mxPoint x="290" y="100" as="targetPoint" />
          </mxGeometry>
        </mxCell>
        <mxCell id="SHjtx8wU5vL2sY_37cBv-4" style="edgeStyle=orthogonalEdgeStyle;rounded=0;orthogonalLoop=1;jettySize=auto;html=1;entryX=0;entryY=0.5;entryDx=0;entryDy=0;entryPerimeter=0;" parent="1MLrccxjdp3mu_vWYp1V-21" source="SHjtx8wU5vL2sY_37cBv-3" target="1MLrccxjdp3mu_vWYp1V-1" edge="1">
          <mxGeometry relative="1" as="geometry" />
        </mxCell>
        <mxCell id="SHjtx8wU5vL2sY_37cBv-3" value="用户" style="shape=actor;whiteSpace=wrap;html=1;" parent="1MLrccxjdp3mu_vWYp1V-21" vertex="1">
          <mxGeometry x="70" y="100" width="40" height="60" as="geometry" />
        </mxCell>
        <mxCell id="SHjtx8wU5vL2sY_37cBv-25" style="edgeStyle=orthogonalEdgeStyle;rounded=0;orthogonalLoop=1;jettySize=auto;html=1;entryX=0;entryY=0.5;entryDx=0;entryDy=0;entryPerimeter=0;" parent="1MLrccxjdp3mu_vWYp1V-21" source="SHjtx8wU5vL2sY_37cBv-20" target="SHjtx8wU5vL2sY_37cBv-23" edge="1">
          <mxGeometry relative="1" as="geometry">
            <Array as="points">
              <mxPoint x="340" y="30" />
            </Array>
          </mxGeometry>
        </mxCell>
        <mxCell id="SHjtx8wU5vL2sY_37cBv-20" value="待支付&lt;br&gt;（状态为6）" style="rounded=1;whiteSpace=wrap;html=1;absoluteArcSize=1;arcSize=14;strokeWidth=2;" parent="1MLrccxjdp3mu_vWYp1V-21" vertex="1">
          <mxGeometry x="280" y="100" width="100" height="60" as="geometry" />
        </mxCell>
        <mxCell id="SHjtx8wU5vL2sY_37cBv-28" style="edgeStyle=orthogonalEdgeStyle;rounded=0;orthogonalLoop=1;jettySize=auto;html=1;exitX=1;exitY=0.5;exitDx=0;exitDy=0;entryX=0;entryY=0.5;entryDx=0;entryDy=0;entryPerimeter=0;" parent="1MLrccxjdp3mu_vWYp1V-21" source="SHjtx8wU5vL2sY_37cBv-22" target="SHjtx8wU5vL2sY_37cBv-26" edge="1">
          <mxGeometry relative="1" as="geometry">
            <Array as="points">
              <mxPoint x="580" y="130" />
              <mxPoint x="580" y="100" />
            </Array>
          </mxGeometry>
        </mxCell>
        <mxCell id="SHjtx8wU5vL2sY_37cBv-29" style="edgeStyle=orthogonalEdgeStyle;rounded=0;orthogonalLoop=1;jettySize=auto;html=1;entryX=0;entryY=0.5;entryDx=0;entryDy=0;entryPerimeter=0;" parent="1MLrccxjdp3mu_vWYp1V-21" source="SHjtx8wU5vL2sY_37cBv-22" target="SHjtx8wU5vL2sY_37cBv-27" edge="1">
          <mxGeometry relative="1" as="geometry">
            <Array as="points">
              <mxPoint x="580" y="130" />
              <mxPoint x="580" y="170" />
            </Array>
          </mxGeometry>
        </mxCell>
        <mxCell id="SHjtx8wU5vL2sY_37cBv-22" value="匹配中&lt;br&gt;（状态为0）" style="rounded=1;whiteSpace=wrap;html=1;absoluteArcSize=1;arcSize=14;strokeWidth=2;" parent="1MLrccxjdp3mu_vWYp1V-21" vertex="1">
          <mxGeometry x="450" y="100" width="100" height="60" as="geometry" />
        </mxCell>
        <mxCell id="SHjtx8wU5vL2sY_37cBv-23" value="未支付取消&lt;br&gt;（状态为17，未上线）" style="strokeWidth=2;html=1;shape=mxgraph.flowchart.terminator;whiteSpace=wrap;" parent="1MLrccxjdp3mu_vWYp1V-21" vertex="1">
          <mxGeometry x="590" y="10" width="140" height="40" as="geometry" />
        </mxCell>
        <mxCell id="SHjtx8wU5vL2sY_37cBv-21" style="edgeStyle=none;rounded=0;orthogonalLoop=1;jettySize=auto;html=1;entryX=0;entryY=0.5;entryDx=0;entryDy=0;" parent="1MLrccxjdp3mu_vWYp1V-21" source="SHjtx8wU5vL2sY_37cBv-20" target="SHjtx8wU5vL2sY_37cBv-22" edge="1">
          <mxGeometry relative="1" as="geometry">
            <mxPoint x="450" y="160" as="targetPoint" />
          </mxGeometry>
        </mxCell>
        <mxCell id="SHjtx8wU5vL2sY_37cBv-26" value="逾时取消&lt;br&gt;（状态为5）" style="strokeWidth=2;html=1;shape=mxgraph.flowchart.terminator;whiteSpace=wrap;" parent="1MLrccxjdp3mu_vWYp1V-21" vertex="1">
          <mxGeometry x="610" y="80" width="100" height="40" as="geometry" />
        </mxCell>
        <mxCell id="SHjtx8wU5vL2sY_37cBv-27" value="用户取消&lt;br&gt;（状态为3）" style="strokeWidth=2;html=1;shape=mxgraph.flowchart.terminator;whiteSpace=wrap;" parent="1MLrccxjdp3mu_vWYp1V-21" vertex="1">
          <mxGeometry x="610" y="150" width="100" height="40" as="geometry" />
        </mxCell>
        <mxCell id="1MLrccxjdp3mu_vWYp1V-28" value="货运单" style="swimlane;startSize=20;horizontal=0;fillColor=#FFFFFF;" parent="1" vertex="1">
          <mxGeometry x="-180" y="190" width="2550" height="300" as="geometry" />
        </mxCell>
        <mxCell id="SHjtx8wU5vL2sY_37cBv-5" value="司机" style="shape=actor;whiteSpace=wrap;html=1;" parent="1MLrccxjdp3mu_vWYp1V-28" vertex="1">
          <mxGeometry x="280" y="40" width="40" height="60" as="geometry" />
        </mxCell>
        <mxCell id="SHjtx8wU5vL2sY_37cBv-34" style="edgeStyle=orthogonalEdgeStyle;rounded=0;orthogonalLoop=1;jettySize=auto;html=1;entryX=0.5;entryY=0;entryDx=0;entryDy=0;" parent="1MLrccxjdp3mu_vWYp1V-28" source="SHjtx8wU5vL2sY_37cBv-31" target="SHjtx8wU5vL2sY_37cBv-33" edge="1">
          <mxGeometry relative="1" as="geometry" />
        </mxCell>
        <mxCell id="SHjtx8wU5vL2sY_37cBv-40" style="edgeStyle=orthogonalEdgeStyle;rounded=0;orthogonalLoop=1;jettySize=auto;html=1;exitX=1;exitY=0.5;exitDx=0;exitDy=0;exitPerimeter=0;entryX=0;entryY=0.5;entryDx=0;entryDy=0;" parent="1MLrccxjdp3mu_vWYp1V-28" source="SHjtx8wU5vL2sY_37cBv-31" target="SHjtx8wU5vL2sY_37cBv-39" edge="1">
          <mxGeometry relative="1" as="geometry" />
        </mxCell>
        <mxCell id="SHjtx8wU5vL2sY_37cBv-50" style="edgeStyle=orthogonalEdgeStyle;rounded=0;orthogonalLoop=1;jettySize=auto;html=1;exitX=0.89;exitY=0.89;exitDx=0;exitDy=0;exitPerimeter=0;entryX=0;entryY=0.5;entryDx=0;entryDy=0;entryPerimeter=0;" parent="1MLrccxjdp3mu_vWYp1V-28" source="SHjtx8wU5vL2sY_37cBv-31" target="SHjtx8wU5vL2sY_37cBv-49" edge="1">
          <mxGeometry relative="1" as="geometry">
            <Array as="points">
              <mxPoint x="560" y="86" />
              <mxPoint x="560" y="180" />
            </Array>
          </mxGeometry>
        </mxCell>
        <mxCell id="SHjtx8wU5vL2sY_37cBv-31" value="接单&lt;br&gt;（状态为1）" style="strokeWidth=2;html=1;shape=mxgraph.flowchart.terminator;whiteSpace=wrap;" parent="1MLrccxjdp3mu_vWYp1V-28" vertex="1">
          <mxGeometry x="460" y="50" width="80" height="40" as="geometry" />
        </mxCell>
        <mxCell id="SHjtx8wU5vL2sY_37cBv-30" style="edgeStyle=orthogonalEdgeStyle;rounded=0;orthogonalLoop=1;jettySize=auto;html=1;entryX=0;entryY=0.5;entryDx=0;entryDy=0;entryPerimeter=0;" parent="1MLrccxjdp3mu_vWYp1V-28" source="SHjtx8wU5vL2sY_37cBv-5" target="SHjtx8wU5vL2sY_37cBv-31" edge="1">
          <mxGeometry relative="1" as="geometry">
            <mxPoint x="410" y="70" as="targetPoint" />
          </mxGeometry>
        </mxCell>
        <mxCell id="SHjtx8wU5vL2sY_37cBv-33" value="司机取消&lt;br&gt;（状态为4）" style="rounded=1;whiteSpace=wrap;html=1;absoluteArcSize=1;arcSize=14;strokeWidth=2;" parent="1MLrccxjdp3mu_vWYp1V-28" vertex="1">
          <mxGeometry x="450" y="150" width="100" height="60" as="geometry" />
        </mxCell>
        <mxCell id="SHjtx8wU5vL2sY_37cBv-42" style="edgeStyle=orthogonalEdgeStyle;rounded=0;orthogonalLoop=1;jettySize=auto;html=1;entryX=0;entryY=0.5;entryDx=0;entryDy=0;" parent="1MLrccxjdp3mu_vWYp1V-28" source="SHjtx8wU5vL2sY_37cBv-39" target="SHjtx8wU5vL2sY_37cBv-41" edge="1">
          <mxGeometry relative="1" as="geometry" />
        </mxCell>
        <mxCell id="SHjtx8wU5vL2sY_37cBv-39" value="装货中&lt;br&gt;（状态为15）" style="rounded=1;whiteSpace=wrap;html=1;absoluteArcSize=1;arcSize=14;strokeWidth=2;" parent="1MLrccxjdp3mu_vWYp1V-28" vertex="1">
          <mxGeometry x="590" y="40" width="100" height="60" as="geometry" />
        </mxCell>
        <mxCell id="SHjtx8wU5vL2sY_37cBv-44" style="edgeStyle=orthogonalEdgeStyle;rounded=0;orthogonalLoop=1;jettySize=auto;html=1;entryX=0;entryY=0.5;entryDx=0;entryDy=0;" parent="1MLrccxjdp3mu_vWYp1V-28" source="SHjtx8wU5vL2sY_37cBv-41" target="SHjtx8wU5vL2sY_37cBv-43" edge="1">
          <mxGeometry relative="1" as="geometry" />
        </mxCell>
        <mxCell id="SHjtx8wU5vL2sY_37cBv-63" style="edgeStyle=orthogonalEdgeStyle;rounded=0;orthogonalLoop=1;jettySize=auto;html=1;" parent="1MLrccxjdp3mu_vWYp1V-28" source="SHjtx8wU5vL2sY_37cBv-41" target="SHjtx8wU5vL2sY_37cBv-51" edge="1">
          <mxGeometry relative="1" as="geometry">
            <mxPoint x="910" y="159" as="targetPoint" />
            <Array as="points">
              <mxPoint x="830" y="130" />
              <mxPoint x="910" y="130" />
              <mxPoint x="910" y="160" />
            </Array>
          </mxGeometry>
        </mxCell>
        <mxCell id="SHjtx8wU5vL2sY_37cBv-41" value="运送中&lt;br&gt;（状态为7）" style="rounded=1;whiteSpace=wrap;html=1;absoluteArcSize=1;arcSize=14;strokeWidth=2;" parent="1MLrccxjdp3mu_vWYp1V-28" vertex="1">
          <mxGeometry x="780" y="40" width="100" height="60" as="geometry" />
        </mxCell>
        <mxCell id="SHjtx8wU5vL2sY_37cBv-46" style="edgeStyle=orthogonalEdgeStyle;rounded=0;orthogonalLoop=1;jettySize=auto;html=1;entryX=0;entryY=0.5;entryDx=0;entryDy=0;" parent="1MLrccxjdp3mu_vWYp1V-28" source="SHjtx8wU5vL2sY_37cBv-43" target="SHjtx8wU5vL2sY_37cBv-45" edge="1">
          <mxGeometry relative="1" as="geometry" />
        </mxCell>
        <mxCell id="SHjtx8wU5vL2sY_37cBv-64" style="edgeStyle=orthogonalEdgeStyle;rounded=0;orthogonalLoop=1;jettySize=auto;html=1;entryX=0.5;entryY=0;entryDx=0;entryDy=0;entryPerimeter=0;" parent="1MLrccxjdp3mu_vWYp1V-28" source="SHjtx8wU5vL2sY_37cBv-43" target="SHjtx8wU5vL2sY_37cBv-51" edge="1">
          <mxGeometry relative="1" as="geometry">
            <Array as="points">
              <mxPoint x="1010" y="130" />
              <mxPoint x="917" y="130" />
            </Array>
          </mxGeometry>
        </mxCell>
        <mxCell id="SHjtx8wU5vL2sY_37cBv-43" value="卸货中&lt;br&gt;（状态为16）" style="rounded=1;whiteSpace=wrap;html=1;absoluteArcSize=1;arcSize=14;strokeWidth=2;" parent="1MLrccxjdp3mu_vWYp1V-28" vertex="1">
          <mxGeometry x="960" y="40" width="100" height="60" as="geometry" />
        </mxCell>
        <mxCell id="SHjtx8wU5vL2sY_37cBv-48" style="edgeStyle=orthogonalEdgeStyle;rounded=0;orthogonalLoop=1;jettySize=auto;html=1;entryX=0;entryY=0.5;entryDx=0;entryDy=0;entryPerimeter=0;" parent="1MLrccxjdp3mu_vWYp1V-28" source="SHjtx8wU5vL2sY_37cBv-45" target="SHjtx8wU5vL2sY_37cBv-47" edge="1">
          <mxGeometry relative="1" as="geometry" />
        </mxCell>
        <mxCell id="SHjtx8wU5vL2sY_37cBv-45" value="司机完成&lt;br&gt;（状态为10）" style="rounded=1;whiteSpace=wrap;html=1;absoluteArcSize=1;arcSize=14;strokeWidth=2;" parent="1MLrccxjdp3mu_vWYp1V-28" vertex="1">
          <mxGeometry x="1130" y="40" width="100" height="60" as="geometry" />
        </mxCell>
        <mxCell id="SHjtx8wU5vL2sY_37cBv-47" value="结束" style="strokeWidth=2;html=1;shape=mxgraph.flowchart.terminator;whiteSpace=wrap;" parent="1MLrccxjdp3mu_vWYp1V-28" vertex="1">
          <mxGeometry x="1311" y="50" width="80" height="40" as="geometry" />
        </mxCell>
        <mxCell id="SHjtx8wU5vL2sY_37cBv-49" value="五天未装货自动取消&lt;br&gt;（状态为8）" style="strokeWidth=2;html=1;shape=mxgraph.flowchart.terminator;whiteSpace=wrap;" parent="1MLrccxjdp3mu_vWYp1V-28" vertex="1">
          <mxGeometry x="580" y="160" width="120" height="40" as="geometry" />
        </mxCell>
        <mxCell id="SHjtx8wU5vL2sY_37cBv-51" value="十天未完成自动取消&lt;br&gt;（状态为9）" style="strokeWidth=2;html=1;shape=mxgraph.flowchart.terminator;whiteSpace=wrap;" parent="1MLrccxjdp3mu_vWYp1V-28" vertex="1">
          <mxGeometry x="857" y="160" width="120" height="40" as="geometry" />
        </mxCell>
        <mxCell id="SHjtx8wU5vL2sY_37cBv-55" style="edgeStyle=orthogonalEdgeStyle;rounded=0;orthogonalLoop=1;jettySize=auto;html=1;" parent="1MLrccxjdp3mu_vWYp1V-28" source="SHjtx8wU5vL2sY_37cBv-33" target="SHjtx8wU5vL2sY_37cBv-47" edge="1">
          <mxGeometry relative="1" as="geometry">
            <mxPoint x="990" y="210" as="targetPoint" />
            <Array as="points">
              <mxPoint x="500" y="260" />
              <mxPoint x="1360" y="260" />
            </Array>
          </mxGeometry>
        </mxCell>
        <mxCell id="SHjtx8wU5vL2sY_37cBv-58" value="第二个接单司机取消" style="edgeLabel;html=1;align=center;verticalAlign=middle;resizable=0;points=[];" parent="SHjtx8wU5vL2sY_37cBv-55" vertex="1" connectable="0">
          <mxGeometry x="-0.9397" relative="1" as="geometry">
            <mxPoint as="offset" />
          </mxGeometry>
        </mxCell>
        <mxCell id="SHjtx8wU5vL2sY_37cBv-56" style="edgeStyle=orthogonalEdgeStyle;rounded=0;orthogonalLoop=1;jettySize=auto;html=1;" parent="1MLrccxjdp3mu_vWYp1V-28" source="SHjtx8wU5vL2sY_37cBv-49" edge="1">
          <mxGeometry relative="1" as="geometry">
            <mxPoint x="1351" y="90" as="targetPoint" />
            <Array as="points">
              <mxPoint x="640" y="250" />
              <mxPoint x="1351" y="250" />
              <mxPoint x="1351" y="90" />
            </Array>
          </mxGeometry>
        </mxCell>
        <mxCell id="SHjtx8wU5vL2sY_37cBv-57" style="edgeStyle=orthogonalEdgeStyle;rounded=0;orthogonalLoop=1;jettySize=auto;html=1;" parent="1MLrccxjdp3mu_vWYp1V-28" source="SHjtx8wU5vL2sY_37cBv-51" target="SHjtx8wU5vL2sY_37cBv-47" edge="1">
          <mxGeometry relative="1" as="geometry">
            <mxPoint x="1310" y="130" as="targetPoint" />
            <Array as="points">
              <mxPoint x="917" y="240" />
              <mxPoint x="1340" y="240" />
            </Array>
          </mxGeometry>
        </mxCell>
        <mxCell id="SHjtx8wU5vL2sY_37cBv-32" style="edgeStyle=orthogonalEdgeStyle;rounded=0;orthogonalLoop=1;jettySize=auto;html=1;entryX=0.5;entryY=0;entryDx=0;entryDy=0;entryPerimeter=0;" parent="1" source="SHjtx8wU5vL2sY_37cBv-22" target="SHjtx8wU5vL2sY_37cBv-31" edge="1">
          <mxGeometry relative="1" as="geometry" />
        </mxCell>
        <mxCell id="SHjtx8wU5vL2sY_37cBv-59" style="edgeStyle=orthogonalEdgeStyle;rounded=0;orthogonalLoop=1;jettySize=auto;html=1;exitX=0.702;exitY=0.002;exitDx=0;exitDy=0;exitPerimeter=0;" parent="1" source="SHjtx8wU5vL2sY_37cBv-31" target="SHjtx8wU5vL2sY_37cBv-27" edge="1">
          <mxGeometry relative="1" as="geometry">
            <Array as="points">
              <mxPoint x="336" y="210" />
              <mxPoint x="480" y="210" />
            </Array>
          </mxGeometry>
        </mxCell>
        <mxCell id="SHjtx8wU5vL2sY_37cBv-62" style="edgeStyle=orthogonalEdgeStyle;rounded=0;orthogonalLoop=1;jettySize=auto;html=1;" parent="1" source="SHjtx8wU5vL2sY_37cBv-39" target="SHjtx8wU5vL2sY_37cBv-27" edge="1">
          <mxGeometry relative="1" as="geometry">
            <Array as="points">
              <mxPoint x="490" y="180" />
              <mxPoint x="490" y="180" />
            </Array>
          </mxGeometry>
        </mxCell>
        <mxCell id="SHjtx8wU5vL2sY_37cBv-65" style="edgeStyle=orthogonalEdgeStyle;rounded=0;orthogonalLoop=1;jettySize=auto;html=1;entryX=0;entryY=0.75;entryDx=0;entryDy=0;exitX=0;exitY=0.5;exitDx=0;exitDy=0;" parent="1" source="SHjtx8wU5vL2sY_37cBv-33" target="SHjtx8wU5vL2sY_37cBv-22" edge="1">
          <mxGeometry relative="1" as="geometry">
            <mxPoint x="260" y="130" as="targetPoint" />
            <Array as="points">
              <mxPoint x="240" y="370" />
              <mxPoint x="240" y="95" />
            </Array>
          </mxGeometry>
        </mxCell>
        <mxCell id="SHjtx8wU5vL2sY_37cBv-66" value="第一个接单司机取消" style="edgeLabel;html=1;align=center;verticalAlign=middle;resizable=0;points=[];" parent="SHjtx8wU5vL2sY_37cBv-65" vertex="1" connectable="0">
          <mxGeometry x="-0.5298" y="3" relative="1" as="geometry">
            <mxPoint as="offset" />
          </mxGeometry>
        </mxCell>
        <mxCell id="SHjtx8wU5vL2sY_37cBv-155" value="申述单" style="swimlane;startSize=20;horizontal=0;" parent="1" vertex="1">
          <mxGeometry x="-180" y="760" width="2550" height="120" as="geometry" />
        </mxCell>
        <mxCell id="SHjtx8wU5vL2sY_37cBv-156" value="异常单" style="swimlane;startSize=20;horizontal=0;" parent="1" vertex="1">
          <mxGeometry x="-180" y="880" width="2550" height="120" as="geometry" />
        </mxCell>
        <mxCell id="SHjtx8wU5vL2sY_37cBv-215" style="edgeStyle=orthogonalEdgeStyle;rounded=0;orthogonalLoop=1;jettySize=auto;html=1;entryX=0.001;entryY=0.161;entryDx=0;entryDy=0;strokeColor=#FF0000;dashed=1;entryPerimeter=0;" parent="1" source="SHjtx8wU5vL2sY_37cBv-20" target="1MLrccxjdp3mu_vWYp1V-31" edge="1">
          <mxGeometry relative="1" as="geometry">
            <Array as="points">
              <mxPoint x="150" y="30" />
              <mxPoint x="-20" y="30" />
              <mxPoint x="-20" y="-187" />
              <mxPoint x="50" y="-187" />
            </Array>
          </mxGeometry>
        </mxCell>
        <mxCell id="SHjtx8wU5vL2sY_37cBv-217" style="edgeStyle=orthogonalEdgeStyle;rounded=0;orthogonalLoop=1;jettySize=auto;html=1;entryX=0;entryY=0.157;entryDx=0;entryDy=0;dashed=1;strokeColor=#FF0000;exitX=0.5;exitY=0;exitDx=0;exitDy=0;entryPerimeter=0;" parent="1" source="SHjtx8wU5vL2sY_37cBv-20" target="SHjtx8wU5vL2sY_37cBv-158" edge="1">
          <mxGeometry relative="1" as="geometry">
            <Array as="points">
              <mxPoint x="150" y="30" />
              <mxPoint x="-20" y="30" />
              <mxPoint x="-20" y="-507" />
              <mxPoint x="760" y="-507" />
            </Array>
          </mxGeometry>
        </mxCell>
        <mxCell id="SHjtx8wU5vL2sY_37cBv-218" style="edgeStyle=orthogonalEdgeStyle;rounded=0;orthogonalLoop=1;jettySize=auto;html=1;dashed=1;strokeColor=#FF0000;entryX=-0.001;entryY=0.135;entryDx=0;entryDy=0;entryPerimeter=0;" parent="1" target="1MLrccxjdp3mu_vWYp1V-29" edge="1">
          <mxGeometry relative="1" as="geometry">
            <mxPoint x="150" y="50" as="sourcePoint" />
            <mxPoint x="780" y="-650" as="targetPoint" />
            <Array as="points">
              <mxPoint x="150" y="30" />
              <mxPoint x="-20" y="30" />
              <mxPoint x="-20" y="-669" />
              <mxPoint x="750" y="-669" />
            </Array>
          </mxGeometry>
        </mxCell>
        <mxCell id="SHjtx8wU5vL2sY_37cBv-219" style="edgeStyle=orthogonalEdgeStyle;rounded=0;orthogonalLoop=1;jettySize=auto;html=1;entryX=0;entryY=0.5;entryDx=0;entryDy=0;dashed=1;strokeColor=#FF0000;exitX=0.5;exitY=0;exitDx=0;exitDy=0;" parent="1" source="SHjtx8wU5vL2sY_37cBv-20" target="SHjtx8wU5vL2sY_37cBv-12" edge="1">
          <mxGeometry relative="1" as="geometry">
            <Array as="points">
              <mxPoint x="150" y="30" />
              <mxPoint x="-20" y="30" />
              <mxPoint x="-20" y="-775" />
            </Array>
          </mxGeometry>
        </mxCell>
        <mxCell id="SHjtx8wU5vL2sY_37cBv-220" style="edgeStyle=orthogonalEdgeStyle;rounded=0;orthogonalLoop=1;jettySize=auto;html=1;dashed=1;strokeColor=#FF0000;entryX=0;entryY=0.5;entryDx=0;entryDy=0;exitX=0.5;exitY=0;exitDx=0;exitDy=0;" parent="1" source="SHjtx8wU5vL2sY_37cBv-20" target="SHjtx8wU5vL2sY_37cBv-17" edge="1">
          <mxGeometry relative="1" as="geometry">
            <mxPoint x="150" y="-290" as="targetPoint" />
            <Array as="points">
              <mxPoint x="150" y="30" />
              <mxPoint x="-20" y="30" />
              <mxPoint x="-20" y="-825" />
            </Array>
          </mxGeometry>
        </mxCell>
        <mxCell id="SHjtx8wU5vL2sY_37cBv-222" style="edgeStyle=orthogonalEdgeStyle;rounded=0;orthogonalLoop=1;jettySize=auto;html=1;dashed=1;strokeColor=#FF0000;exitX=0.5;exitY=0;exitDx=0;exitDy=0;entryX=-0.004;entryY=0.162;entryDx=0;entryDy=0;entryPerimeter=0;" parent="1" source="SHjtx8wU5vL2sY_37cBv-20" target="SHjtx8wU5vL2sY_37cBv-184" edge="1">
          <mxGeometry relative="1" as="geometry">
            <mxPoint x="1720" y="-587" as="targetPoint" />
            <Array as="points">
              <mxPoint x="150" y="30" />
              <mxPoint x="-20" y="30" />
              <mxPoint x="-20" y="-587" />
            </Array>
          </mxGeometry>
        </mxCell>
        <mxCell id="SHjtx8wU5vL2sY_37cBv-223" style="edgeStyle=orthogonalEdgeStyle;rounded=0;orthogonalLoop=1;jettySize=auto;html=1;dashed=1;strokeColor=#FF0000;exitX=0.5;exitY=0;exitDx=0;exitDy=0;entryX=-0.001;entryY=0.181;entryDx=0;entryDy=0;entryPerimeter=0;" parent="1" source="SHjtx8wU5vL2sY_37cBv-20" target="1MLrccxjdp3mu_vWYp1V-32" edge="1">
          <mxGeometry relative="1" as="geometry">
            <mxPoint x="1750" y="-719" as="targetPoint" />
            <Array as="points">
              <mxPoint x="150" y="30" />
              <mxPoint x="-20" y="30" />
              <mxPoint x="-20" y="-745" />
            </Array>
          </mxGeometry>
        </mxCell>
        <mxCell id="SHjtx8wU5vL2sY_37cBv-7" value="" style="swimlane;html=1;horizontal=0;swimlaneLine=0;startSize=10;fillColor=#FFFFFF;" parent="1" vertex="1">
          <mxGeometry x="-180" y="-850" width="2530" height="800" as="geometry" />
        </mxCell>
        <mxCell id="1MLrccxjdp3mu_vWYp1V-29" value="db_order.t_order" style="shape=datastore;whiteSpace=wrap;html=1;" parent="SHjtx8wU5vL2sY_37cBv-7" vertex="1">
          <mxGeometry x="940" y="170" width="230" height="80" as="geometry" />
        </mxCell>
        <mxCell id="SHjtx8wU5vL2sY_37cBv-12" value="db_order.t_order_id_uuid_mapping" style="shape=datastore;whiteSpace=wrap;html=1;" parent="SHjtx8wU5vL2sY_37cBv-7" vertex="1">
          <mxGeometry x="940" y="60" width="230" height="30" as="geometry" />
        </mxCell>
        <mxCell id="1MLrccxjdp3mu_vWYp1V-32" value="db_order_freight.order_request" style="shape=datastore;whiteSpace=wrap;html=1;" parent="SHjtx8wU5vL2sY_37cBv-7" vertex="1">
          <mxGeometry x="1900" y="90" width="220" height="80" as="geometry" />
        </mxCell>
        <mxCell id="SHjtx8wU5vL2sY_37cBv-17" value="db_order.t_order_id_display_id_mapping" style="shape=datastore;whiteSpace=wrap;html=1;" parent="SHjtx8wU5vL2sY_37cBv-7" vertex="1">
          <mxGeometry x="940" y="10" width="230" height="30" as="geometry" />
        </mxCell>
        <mxCell id="SHjtx8wU5vL2sY_37cBv-184" value="db_order_freight.order_freight" style="shape=datastore;whiteSpace=wrap;html=1;" parent="SHjtx8wU5vL2sY_37cBv-7" vertex="1">
          <mxGeometry x="1900" y="250" width="220" height="80" as="geometry" />
        </mxCell>
        <mxCell id="SHjtx8wU5vL2sY_37cBv-185" value="db_order_freight.order_attribute" style="shape=datastore;whiteSpace=wrap;html=1;" parent="SHjtx8wU5vL2sY_37cBv-7" vertex="1">
          <mxGeometry x="1900" y="410" width="220" height="80" as="geometry" />
        </mxCell>
        <mxCell id="SHjtx8wU5vL2sY_37cBv-158" value="db_order.t_order_user" style="shape=datastore;whiteSpace=wrap;html=1;" parent="SHjtx8wU5vL2sY_37cBv-7" vertex="1">
          <mxGeometry x="940" y="330" width="230" height="80" as="geometry" />
        </mxCell>
        <mxCell id="SHjtx8wU5vL2sY_37cBv-160" value="db_order.t_order_driver" style="shape=datastore;whiteSpace=wrap;html=1;" parent="SHjtx8wU5vL2sY_37cBv-7" vertex="1">
          <mxGeometry x="940" y="490" width="230" height="80" as="geometry" />
        </mxCell>
        <mxCell id="1MLrccxjdp3mu_vWYp1V-31" value="db_user.t_order" style="shape=datastore;whiteSpace=wrap;html=1;" parent="SHjtx8wU5vL2sY_37cBv-7" vertex="1">
          <mxGeometry x="250" y="650" width="140" height="80" as="geometry" />
        </mxCell>
        <mxCell id="SHjtx8wU5vL2sY_37cBv-216" style="edgeStyle=orthogonalEdgeStyle;rounded=0;orthogonalLoop=1;jettySize=auto;html=1;dashed=1;strokeColor=#FF0000;" parent="SHjtx8wU5vL2sY_37cBv-7" edge="1">
          <mxGeometry relative="1" as="geometry">
            <mxPoint x="330" y="900" as="sourcePoint" />
            <mxPoint x="940" y="501" as="targetPoint" />
            <Array as="points">
              <mxPoint x="330" y="880" />
              <mxPoint x="160" y="880" />
              <mxPoint x="160" y="501" />
            </Array>
          </mxGeometry>
        </mxCell>
        <mxCell id="SHjtx8wU5vL2sY_37cBv-221" style="edgeStyle=orthogonalEdgeStyle;rounded=0;orthogonalLoop=1;jettySize=auto;html=1;dashed=1;strokeColor=#FF0000;entryX=0;entryY=0.186;entryDx=0;entryDy=0;entryPerimeter=0;exitX=0.5;exitY=0;exitDx=0;exitDy=0;" parent="1" source="SHjtx8wU5vL2sY_37cBv-20" target="SHjtx8wU5vL2sY_37cBv-185" edge="1">
          <mxGeometry relative="1" as="geometry">
            <mxPoint x="-40" as="sourcePoint" />
            <mxPoint x="1700" y="-420" as="targetPoint" />
            <Array as="points">
              <mxPoint x="150" y="30" />
              <mxPoint x="-20" y="30" />
              <mxPoint x="-20" y="-425" />
            </Array>
          </mxGeometry>
        </mxCell>
        <mxCell id="SHjtx8wU5vL2sY_37cBv-258" style="edgeStyle=orthogonalEdgeStyle;rounded=0;orthogonalLoop=1;jettySize=auto;html=1;entryX=0;entryY=0.216;entryDx=0;entryDy=0;dashed=1;strokeColor=#999900;entryPerimeter=0;" parent="1" source="SHjtx8wU5vL2sY_37cBv-22" target="1MLrccxjdp3mu_vWYp1V-31" edge="1">
          <mxGeometry relative="1" as="geometry">
            <Array as="points">
              <mxPoint x="320" y="20" />
              <mxPoint x="-10" y="20" />
              <mxPoint x="-10" y="-183" />
            </Array>
          </mxGeometry>
        </mxCell>
        <mxCell id="SHjtx8wU5vL2sY_37cBv-259" style="edgeStyle=orthogonalEdgeStyle;rounded=0;orthogonalLoop=1;jettySize=auto;html=1;dashed=1;strokeColor=#999900;entryX=-0.001;entryY=0.248;entryDx=0;entryDy=0;entryPerimeter=0;" parent="1" source="SHjtx8wU5vL2sY_37cBv-22" target="1MLrccxjdp3mu_vWYp1V-32" edge="1">
          <mxGeometry relative="1" as="geometry">
            <mxPoint x="1290" y="-690" as="targetPoint" />
            <Array as="points">
              <mxPoint x="320" y="20" />
              <mxPoint x="-10" y="20" />
              <mxPoint x="-10" y="-740" />
            </Array>
          </mxGeometry>
        </mxCell>
        <mxCell id="SHjtx8wU5vL2sY_37cBv-260" style="edgeStyle=orthogonalEdgeStyle;rounded=0;orthogonalLoop=1;jettySize=auto;html=1;dashed=1;strokeColor=#999900;exitX=0.5;exitY=0;exitDx=0;exitDy=0;entryX=-0.002;entryY=0.209;entryDx=0;entryDy=0;entryPerimeter=0;" parent="1" source="SHjtx8wU5vL2sY_37cBv-22" target="1MLrccxjdp3mu_vWYp1V-29" edge="1">
          <mxGeometry relative="1" as="geometry">
            <mxPoint x="759" y="-664" as="targetPoint" />
            <Array as="points">
              <mxPoint x="320" y="20" />
              <mxPoint x="-10" y="20" />
              <mxPoint x="-10" y="-663" />
              <mxPoint x="757" y="-663" />
            </Array>
          </mxGeometry>
        </mxCell>
        <mxCell id="SHjtx8wU5vL2sY_37cBv-261" style="edgeStyle=orthogonalEdgeStyle;rounded=0;orthogonalLoop=1;jettySize=auto;html=1;dashed=1;strokeColor=#999900;entryX=0.001;entryY=0.238;entryDx=0;entryDy=0;entryPerimeter=0;" parent="1" source="SHjtx8wU5vL2sY_37cBv-22" target="SHjtx8wU5vL2sY_37cBv-184" edge="1">
          <mxGeometry relative="1" as="geometry">
            <mxPoint x="1380" y="-530" as="targetPoint" />
            <Array as="points">
              <mxPoint x="320" y="20" />
              <mxPoint x="-10" y="20" />
              <mxPoint x="-10" y="-581" />
            </Array>
          </mxGeometry>
        </mxCell>
        <mxCell id="SHjtx8wU5vL2sY_37cBv-263" style="edgeStyle=orthogonalEdgeStyle;rounded=0;orthogonalLoop=1;jettySize=auto;html=1;dashed=1;strokeColor=#999900;entryX=0;entryY=0.25;entryDx=0;entryDy=0;entryPerimeter=0;" parent="1" source="SHjtx8wU5vL2sY_37cBv-22" target="SHjtx8wU5vL2sY_37cBv-158" edge="1">
          <mxGeometry relative="1" as="geometry">
            <mxPoint x="510" y="-370" as="targetPoint" />
            <Array as="points">
              <mxPoint x="320" y="20" />
              <mxPoint x="-10" y="20" />
              <mxPoint x="-10" y="-500" />
            </Array>
          </mxGeometry>
        </mxCell>
        <mxCell id="SHjtx8wU5vL2sY_37cBv-264" style="edgeStyle=orthogonalEdgeStyle;rounded=0;orthogonalLoop=1;jettySize=auto;html=1;dashed=1;strokeColor=#999900;entryX=0;entryY=0.25;entryDx=0;entryDy=0;entryPerimeter=0;" parent="1" source="SHjtx8wU5vL2sY_37cBv-22" target="SHjtx8wU5vL2sY_37cBv-185" edge="1">
          <mxGeometry relative="1" as="geometry">
            <mxPoint x="1500" y="-410" as="targetPoint" />
            <Array as="points">
              <mxPoint x="320" y="20" />
              <mxPoint x="-10" y="20" />
              <mxPoint x="-10" y="-420" />
            </Array>
          </mxGeometry>
        </mxCell>
        <mxCell id="SHjtx8wU5vL2sY_37cBv-265" style="edgeStyle=orthogonalEdgeStyle;rounded=0;orthogonalLoop=1;jettySize=auto;html=1;dashed=1;strokeColor=#999900;entryX=0.004;entryY=0.199;entryDx=0;entryDy=0;entryPerimeter=0;" parent="1" source="SHjtx8wU5vL2sY_37cBv-22" target="SHjtx8wU5vL2sY_37cBv-160" edge="1">
          <mxGeometry relative="1" as="geometry">
            <mxPoint x="319.9999999999998" y="-140" as="targetPoint" />
            <Array as="points">
              <mxPoint x="320" y="20" />
              <mxPoint x="-10" y="20" />
              <mxPoint x="-10" y="-344" />
            </Array>
          </mxGeometry>
        </mxCell>
        <mxCell id="SHjtx8wU5vL2sY_37cBv-266" style="edgeStyle=orthogonalEdgeStyle;rounded=0;orthogonalLoop=1;jettySize=auto;html=1;dashed=1;strokeColor=#80FF00;entryX=0;entryY=0.3;entryDx=0;entryDy=0;exitX=0.5;exitY=0;exitDx=0;exitDy=0;exitPerimeter=0;" parent="1" source="SHjtx8wU5vL2sY_37cBv-26" target="1MLrccxjdp3mu_vWYp1V-31" edge="1">
          <mxGeometry relative="1" as="geometry">
            <mxPoint x="60" y="-160" as="targetPoint" />
            <Array as="points">
              <mxPoint x="480" y="10" />
              <mxPoint y="10" />
              <mxPoint y="-176" />
            </Array>
          </mxGeometry>
        </mxCell>
        <mxCell id="SHjtx8wU5vL2sY_37cBv-267" style="edgeStyle=orthogonalEdgeStyle;rounded=0;orthogonalLoop=1;jettySize=auto;html=1;dashed=1;strokeColor=#80FF00;entryX=0;entryY=0.25;entryDx=0;entryDy=0;entryPerimeter=0;" parent="1" source="SHjtx8wU5vL2sY_37cBv-26" target="SHjtx8wU5vL2sY_37cBv-160" edge="1">
          <mxGeometry relative="1" as="geometry">
            <mxPoint x="489.9999999999998" y="-150" as="targetPoint" />
            <Array as="points">
              <mxPoint x="480" y="10" />
              <mxPoint y="10" />
              <mxPoint y="-340" />
            </Array>
          </mxGeometry>
        </mxCell>
        <mxCell id="SHjtx8wU5vL2sY_37cBv-268" style="edgeStyle=orthogonalEdgeStyle;rounded=0;orthogonalLoop=1;jettySize=auto;html=1;dashed=1;strokeColor=#80FF00;entryX=0;entryY=0.3;entryDx=0;entryDy=0;" parent="1" source="SHjtx8wU5vL2sY_37cBv-26" target="SHjtx8wU5vL2sY_37cBv-185" edge="1">
          <mxGeometry relative="1" as="geometry">
            <mxPoint x="1360" y="-280" as="targetPoint" />
            <Array as="points">
              <mxPoint x="480" y="10" />
              <mxPoint y="10" />
              <mxPoint y="-416" />
            </Array>
          </mxGeometry>
        </mxCell>
        <mxCell id="SHjtx8wU5vL2sY_37cBv-269" style="edgeStyle=orthogonalEdgeStyle;rounded=0;orthogonalLoop=1;jettySize=auto;html=1;dashed=1;strokeColor=#80FF00;entryX=0;entryY=0.338;entryDx=0;entryDy=0;entryPerimeter=0;" parent="1" source="SHjtx8wU5vL2sY_37cBv-26" target="SHjtx8wU5vL2sY_37cBv-158" edge="1">
          <mxGeometry relative="1" as="geometry">
            <mxPoint x="760" y="-496" as="targetPoint" />
            <Array as="points">
              <mxPoint x="480" y="10" />
              <mxPoint y="10" />
              <mxPoint y="-493" />
            </Array>
          </mxGeometry>
        </mxCell>
        <mxCell id="SHjtx8wU5vL2sY_37cBv-270" style="edgeStyle=orthogonalEdgeStyle;rounded=0;orthogonalLoop=1;jettySize=auto;html=1;dashed=1;strokeColor=#80FF00;entryX=0;entryY=0.3;entryDx=0;entryDy=0;" parent="1" source="SHjtx8wU5vL2sY_37cBv-26" target="SHjtx8wU5vL2sY_37cBv-184" edge="1">
          <mxGeometry relative="1" as="geometry">
            <mxPoint x="1260" y="-510" as="targetPoint" />
            <Array as="points">
              <mxPoint x="480" y="10" />
              <mxPoint y="10" />
              <mxPoint y="-576" />
            </Array>
          </mxGeometry>
        </mxCell>
        <mxCell id="SHjtx8wU5vL2sY_37cBv-271" style="edgeStyle=orthogonalEdgeStyle;rounded=0;orthogonalLoop=1;jettySize=auto;html=1;dashed=1;strokeColor=#80FF00;entryX=0;entryY=0.3;entryDx=0;entryDy=0;" parent="1" source="SHjtx8wU5vL2sY_37cBv-26" target="1MLrccxjdp3mu_vWYp1V-29" edge="1">
          <mxGeometry relative="1" as="geometry">
            <mxPoint x="670" y="-550" as="targetPoint" />
            <Array as="points">
              <mxPoint x="480" y="10" />
              <mxPoint y="10" />
              <mxPoint y="-656" />
            </Array>
          </mxGeometry>
        </mxCell>
        <mxCell id="SHjtx8wU5vL2sY_37cBv-272" style="edgeStyle=orthogonalEdgeStyle;rounded=0;orthogonalLoop=1;jettySize=auto;html=1;dashed=1;strokeColor=#80FF00;entryX=0;entryY=0.3;entryDx=0;entryDy=0;" parent="1" source="SHjtx8wU5vL2sY_37cBv-26" target="1MLrccxjdp3mu_vWYp1V-32" edge="1">
          <mxGeometry relative="1" as="geometry">
            <mxPoint x="1290" y="-670" as="targetPoint" />
            <Array as="points">
              <mxPoint x="480" y="10" />
              <mxPoint y="10" />
              <mxPoint y="-736" />
            </Array>
          </mxGeometry>
        </mxCell>
        <mxCell id="SHjtx8wU5vL2sY_37cBv-273" style="edgeStyle=orthogonalEdgeStyle;rounded=0;orthogonalLoop=1;jettySize=auto;html=1;dashed=1;strokeColor=#33FFFF;exitX=0.5;exitY=0;exitDx=0;exitDy=0;exitPerimeter=0;" parent="1" source="SHjtx8wU5vL2sY_37cBv-23" edge="1">
          <mxGeometry relative="1" as="geometry">
            <mxPoint x="211" y="-130" as="targetPoint" />
            <Array as="points">
              <mxPoint x="480" y="-130" />
            </Array>
          </mxGeometry>
        </mxCell>
        <mxCell id="SHjtx8wU5vL2sY_37cBv-274" style="edgeStyle=orthogonalEdgeStyle;rounded=0;orthogonalLoop=1;jettySize=auto;html=1;dashed=1;strokeColor=#33FFFF;entryX=0;entryY=0.375;entryDx=0;entryDy=0;entryPerimeter=0;exitX=0.5;exitY=0;exitDx=0;exitDy=0;exitPerimeter=0;" parent="1" source="SHjtx8wU5vL2sY_37cBv-23" target="SHjtx8wU5vL2sY_37cBv-160" edge="1">
          <mxGeometry relative="1" as="geometry">
            <mxPoint x="670" y="-220" as="targetPoint" />
            <Array as="points">
              <mxPoint x="480" y="-330" />
            </Array>
          </mxGeometry>
        </mxCell>
        <mxCell id="SHjtx8wU5vL2sY_37cBv-275" style="edgeStyle=orthogonalEdgeStyle;rounded=0;orthogonalLoop=1;jettySize=auto;html=1;dashed=1;strokeColor=#33FFFF;" parent="1" source="SHjtx8wU5vL2sY_37cBv-23" edge="1">
          <mxGeometry relative="1" as="geometry">
            <mxPoint x="760" y="-480" as="targetPoint" />
            <Array as="points">
              <mxPoint x="480" y="-480" />
              <mxPoint x="760" y="-480" />
            </Array>
          </mxGeometry>
        </mxCell>
        <mxCell id="SHjtx8wU5vL2sY_37cBv-276" style="edgeStyle=orthogonalEdgeStyle;rounded=0;orthogonalLoop=1;jettySize=auto;html=1;dashed=1;strokeColor=#33FFFF;entryX=0;entryY=0.423;entryDx=0;entryDy=0;entryPerimeter=0;" parent="1" source="SHjtx8wU5vL2sY_37cBv-23" target="1MLrccxjdp3mu_vWYp1V-29" edge="1">
          <mxGeometry relative="1" as="geometry">
            <mxPoint x="580" y="-570" as="targetPoint" />
            <Array as="points">
              <mxPoint x="480" y="-646" />
            </Array>
          </mxGeometry>
        </mxCell>
        <mxCell id="SHjtx8wU5vL2sY_37cBv-277" style="edgeStyle=orthogonalEdgeStyle;rounded=0;orthogonalLoop=1;jettySize=auto;html=1;dashed=1;strokeColor=#33FFFF;entryX=0;entryY=0.392;entryDx=0;entryDy=0;entryPerimeter=0;" parent="1" source="SHjtx8wU5vL2sY_37cBv-23" target="SHjtx8wU5vL2sY_37cBv-185" edge="1">
          <mxGeometry relative="1" as="geometry">
            <mxPoint x="1350" y="-360" as="targetPoint" />
            <Array as="points">
              <mxPoint x="480" y="-409" />
            </Array>
          </mxGeometry>
        </mxCell>
        <mxCell id="SHjtx8wU5vL2sY_37cBv-278" style="edgeStyle=orthogonalEdgeStyle;rounded=0;orthogonalLoop=1;jettySize=auto;html=1;dashed=1;strokeColor=#33FFFF;entryX=0;entryY=0.371;entryDx=0;entryDy=0;entryPerimeter=0;" parent="1" source="SHjtx8wU5vL2sY_37cBv-23" target="SHjtx8wU5vL2sY_37cBv-184" edge="1">
          <mxGeometry relative="1" as="geometry">
            <mxPoint x="1340" y="-400" as="targetPoint" />
            <Array as="points">
              <mxPoint x="480" y="-570" />
            </Array>
          </mxGeometry>
        </mxCell>
        <mxCell id="SHjtx8wU5vL2sY_37cBv-279" style="edgeStyle=orthogonalEdgeStyle;rounded=0;orthogonalLoop=1;jettySize=auto;html=1;dashed=1;strokeColor=#33FFFF;entryX=0;entryY=0.375;entryDx=0;entryDy=0;entryPerimeter=0;" parent="1" source="SHjtx8wU5vL2sY_37cBv-23" target="1MLrccxjdp3mu_vWYp1V-32" edge="1">
          <mxGeometry relative="1" as="geometry">
            <mxPoint x="1250" y="-670" as="targetPoint" />
            <Array as="points">
              <mxPoint x="480" y="-730" />
            </Array>
          </mxGeometry>
        </mxCell>
        <mxCell id="SHjtx8wU5vL2sY_37cBv-280" style="edgeStyle=orthogonalEdgeStyle;rounded=0;orthogonalLoop=1;jettySize=auto;html=1;dashed=1;entryX=0.994;entryY=0.777;entryDx=0;entryDy=0;strokeColor=#0066CC;entryPerimeter=0;" parent="1" source="SHjtx8wU5vL2sY_37cBv-27" target="1MLrccxjdp3mu_vWYp1V-31" edge="1">
          <mxGeometry relative="1" as="geometry">
            <mxPoint x="600" y="-120" as="targetPoint" />
            <Array as="points">
              <mxPoint x="570" y="120" />
              <mxPoint x="570" y="-138" />
            </Array>
          </mxGeometry>
        </mxCell>
        <mxCell id="SHjtx8wU5vL2sY_37cBv-281" style="edgeStyle=orthogonalEdgeStyle;rounded=0;orthogonalLoop=1;jettySize=auto;html=1;dashed=1;strokeColor=#0066CC;entryX=0;entryY=0.5;entryDx=0;entryDy=0;" parent="1" source="SHjtx8wU5vL2sY_37cBv-27" target="SHjtx8wU5vL2sY_37cBv-160" edge="1">
          <mxGeometry relative="1" as="geometry">
            <mxPoint x="640" y="-20" as="targetPoint" />
            <Array as="points">
              <mxPoint x="570" y="120" />
              <mxPoint x="570" y="-320" />
            </Array>
          </mxGeometry>
        </mxCell>
        <mxCell id="SHjtx8wU5vL2sY_37cBv-282" style="edgeStyle=orthogonalEdgeStyle;rounded=0;orthogonalLoop=1;jettySize=auto;html=1;dashed=1;strokeColor=#0066CC;entryX=0.004;entryY=0.61;entryDx=0;entryDy=0;entryPerimeter=0;" parent="1" source="SHjtx8wU5vL2sY_37cBv-27" target="SHjtx8wU5vL2sY_37cBv-158" edge="1">
          <mxGeometry relative="1" as="geometry">
            <mxPoint x="740" y="-472" as="targetPoint" />
            <Array as="points">
              <mxPoint x="570" y="120" />
              <mxPoint x="570" y="-471" />
            </Array>
          </mxGeometry>
        </mxCell>
        <mxCell id="SHjtx8wU5vL2sY_37cBv-283" style="edgeStyle=orthogonalEdgeStyle;rounded=0;orthogonalLoop=1;jettySize=auto;html=1;dashed=1;strokeColor=#0066CC;entryX=0;entryY=0.5;entryDx=0;entryDy=0;" parent="1" source="SHjtx8wU5vL2sY_37cBv-27" target="1MLrccxjdp3mu_vWYp1V-29" edge="1">
          <mxGeometry relative="1" as="geometry">
            <mxPoint x="640" y="-620" as="targetPoint" />
            <Array as="points">
              <mxPoint x="570" y="120" />
              <mxPoint x="570" y="-640" />
            </Array>
          </mxGeometry>
        </mxCell>
        <mxCell id="SHjtx8wU5vL2sY_37cBv-284" style="edgeStyle=orthogonalEdgeStyle;rounded=0;orthogonalLoop=1;jettySize=auto;html=1;dashed=1;strokeColor=#0066CC;entryX=0;entryY=0.5;entryDx=0;entryDy=0;" parent="1" source="SHjtx8wU5vL2sY_37cBv-27" target="SHjtx8wU5vL2sY_37cBv-185" edge="1">
          <mxGeometry relative="1" as="geometry">
            <mxPoint x="1420" y="-390" as="targetPoint" />
            <Array as="points">
              <mxPoint x="570" y="120" />
              <mxPoint x="570" y="-400" />
            </Array>
          </mxGeometry>
        </mxCell>
        <mxCell id="SHjtx8wU5vL2sY_37cBv-285" style="edgeStyle=orthogonalEdgeStyle;rounded=0;orthogonalLoop=1;jettySize=auto;html=1;dashed=1;strokeColor=#0066CC;entryX=0;entryY=0.5;entryDx=0;entryDy=0;" parent="1" source="SHjtx8wU5vL2sY_37cBv-27" target="SHjtx8wU5vL2sY_37cBv-184" edge="1">
          <mxGeometry relative="1" as="geometry">
            <mxPoint x="1300" y="-500" as="targetPoint" />
            <Array as="points">
              <mxPoint x="570" y="120" />
              <mxPoint x="570" y="-560" />
            </Array>
          </mxGeometry>
        </mxCell>
        <mxCell id="SHjtx8wU5vL2sY_37cBv-286" style="edgeStyle=orthogonalEdgeStyle;rounded=0;orthogonalLoop=1;jettySize=auto;html=1;dashed=1;strokeColor=#0066CC;entryX=0;entryY=0.5;entryDx=0;entryDy=0;" parent="1" source="SHjtx8wU5vL2sY_37cBv-27" target="1MLrccxjdp3mu_vWYp1V-32" edge="1">
          <mxGeometry relative="1" as="geometry">
            <mxPoint x="1130" y="-660" as="targetPoint" />
            <Array as="points">
              <mxPoint x="570" y="120" />
              <mxPoint x="570" y="-720" />
            </Array>
          </mxGeometry>
        </mxCell>
        <mxCell id="SHjtx8wU5vL2sY_37cBv-287" style="edgeStyle=orthogonalEdgeStyle;rounded=0;orthogonalLoop=1;jettySize=auto;html=1;exitX=0;exitY=0.25;exitDx=0;exitDy=0;dashed=1;entryX=0;entryY=0.375;entryDx=0;entryDy=0;entryPerimeter=0;strokeColor=#FF00FF;" parent="1" source="SHjtx8wU5vL2sY_37cBv-33" target="1MLrccxjdp3mu_vWYp1V-31" edge="1">
          <mxGeometry relative="1" as="geometry">
            <mxPoint x="30" y="-130" as="targetPoint" />
            <Array as="points">
              <mxPoint x="270" y="360" />
              <mxPoint x="-40" y="360" />
              <mxPoint x="-40" y="-170" />
            </Array>
          </mxGeometry>
        </mxCell>
        <mxCell id="SHjtx8wU5vL2sY_37cBv-288" style="edgeStyle=orthogonalEdgeStyle;rounded=0;orthogonalLoop=1;jettySize=auto;html=1;exitX=0;exitY=0.25;exitDx=0;exitDy=0;dashed=1;strokeColor=#FF00FF;entryX=0;entryY=0.621;entryDx=0;entryDy=0;entryPerimeter=0;" parent="1" source="SHjtx8wU5vL2sY_37cBv-33" target="SHjtx8wU5vL2sY_37cBv-160" edge="1">
          <mxGeometry relative="1" as="geometry">
            <mxPoint x="370" y="-170" as="targetPoint" />
            <Array as="points">
              <mxPoint x="270" y="360" />
              <mxPoint x="-40" y="360" />
              <mxPoint x="-40" y="-310" />
            </Array>
          </mxGeometry>
        </mxCell>
        <mxCell id="SHjtx8wU5vL2sY_37cBv-289" style="edgeStyle=orthogonalEdgeStyle;rounded=0;orthogonalLoop=1;jettySize=auto;html=1;dashed=1;strokeColor=#FF00FF;entryX=0;entryY=0.7;entryDx=0;entryDy=0;" parent="1" source="SHjtx8wU5vL2sY_37cBv-33" target="SHjtx8wU5vL2sY_37cBv-158" edge="1">
          <mxGeometry relative="1" as="geometry">
            <mxPoint x="710" y="-360" as="targetPoint" />
            <Array as="points">
              <mxPoint x="-40" y="360" />
              <mxPoint x="-40" y="-464" />
            </Array>
          </mxGeometry>
        </mxCell>
        <mxCell id="SHjtx8wU5vL2sY_37cBv-290" style="edgeStyle=orthogonalEdgeStyle;rounded=0;orthogonalLoop=1;jettySize=auto;html=1;dashed=1;strokeColor=#FF00FF;entryX=0;entryY=0.625;entryDx=0;entryDy=0;entryPerimeter=0;" parent="1" source="SHjtx8wU5vL2sY_37cBv-33" target="1MLrccxjdp3mu_vWYp1V-29" edge="1">
          <mxGeometry relative="1" as="geometry">
            <mxPoint x="600" y="-450" as="targetPoint" />
            <Array as="points">
              <mxPoint x="-40" y="360" />
              <mxPoint x="-40" y="-630" />
            </Array>
          </mxGeometry>
        </mxCell>
        <mxCell id="SHjtx8wU5vL2sY_37cBv-291" style="edgeStyle=orthogonalEdgeStyle;rounded=0;orthogonalLoop=1;jettySize=auto;html=1;dashed=1;strokeColor=#FF00FF;entryX=-0.004;entryY=0.579;entryDx=0;entryDy=0;entryPerimeter=0;" parent="1" source="SHjtx8wU5vL2sY_37cBv-33" target="SHjtx8wU5vL2sY_37cBv-185" edge="1">
          <mxGeometry relative="1" as="geometry">
            <mxPoint x="1710" y="-380" as="targetPoint" />
            <Array as="points">
              <mxPoint x="-40" y="360" />
              <mxPoint x="-40" y="-394" />
            </Array>
          </mxGeometry>
        </mxCell>
        <mxCell id="SHjtx8wU5vL2sY_37cBv-292" style="edgeStyle=orthogonalEdgeStyle;rounded=0;orthogonalLoop=1;jettySize=auto;html=1;dashed=1;strokeColor=#FF00FF;entryX=0;entryY=0.625;entryDx=0;entryDy=0;entryPerimeter=0;" parent="1" source="SHjtx8wU5vL2sY_37cBv-33" target="SHjtx8wU5vL2sY_37cBv-184" edge="1">
          <mxGeometry relative="1" as="geometry">
            <mxPoint x="1540" y="-570" as="targetPoint" />
            <Array as="points">
              <mxPoint x="-40" y="360" />
              <mxPoint x="-40" y="-550" />
            </Array>
          </mxGeometry>
        </mxCell>
        <mxCell id="SHjtx8wU5vL2sY_37cBv-293" style="edgeStyle=orthogonalEdgeStyle;rounded=0;orthogonalLoop=1;jettySize=auto;html=1;dashed=1;strokeColor=#FF00FF;entryX=0.004;entryY=0.631;entryDx=0;entryDy=0;entryPerimeter=0;" parent="1" source="SHjtx8wU5vL2sY_37cBv-33" target="1MLrccxjdp3mu_vWYp1V-32" edge="1">
          <mxGeometry relative="1" as="geometry">
            <mxPoint x="1330" y="-710" as="targetPoint" />
            <Array as="points">
              <mxPoint x="-40" y="360" />
              <mxPoint x="-40" y="-709" />
            </Array>
          </mxGeometry>
        </mxCell>
        <mxCell id="SHjtx8wU5vL2sY_37cBv-294" style="edgeStyle=orthogonalEdgeStyle;rounded=0;orthogonalLoop=1;jettySize=auto;html=1;dashed=1;entryX=0;entryY=0.5;entryDx=0;entryDy=0;strokeColor=#4C0099;exitX=0.11;exitY=0.11;exitDx=0;exitDy=0;exitPerimeter=0;" parent="1" source="SHjtx8wU5vL2sY_37cBv-31" target="1MLrccxjdp3mu_vWYp1V-31" edge="1">
          <mxGeometry relative="1" as="geometry">
            <mxPoint x="50" y="-70" as="targetPoint" />
            <mxPoint x="282" y="248" as="sourcePoint" />
            <Array as="points">
              <mxPoint x="289" y="220" />
              <mxPoint x="10" y="220" />
              <mxPoint x="10" y="-160" />
            </Array>
          </mxGeometry>
        </mxCell>
        <mxCell id="SHjtx8wU5vL2sY_37cBv-295" style="edgeStyle=orthogonalEdgeStyle;rounded=0;orthogonalLoop=1;jettySize=auto;html=1;dashed=1;strokeColor=#4C0099;entryX=0;entryY=0.7;entryDx=0;entryDy=0;exitX=0.11;exitY=0.11;exitDx=0;exitDy=0;exitPerimeter=0;" parent="1" source="SHjtx8wU5vL2sY_37cBv-31" target="SHjtx8wU5vL2sY_37cBv-160" edge="1">
          <mxGeometry relative="1" as="geometry">
            <mxPoint x="640" y="20" as="targetPoint" />
            <Array as="points">
              <mxPoint x="289" y="220" />
              <mxPoint x="10" y="220" />
              <mxPoint x="10" y="-304" />
            </Array>
          </mxGeometry>
        </mxCell>
        <mxCell id="SHjtx8wU5vL2sY_37cBv-296" style="edgeStyle=orthogonalEdgeStyle;rounded=0;orthogonalLoop=1;jettySize=auto;html=1;dashed=1;strokeColor=#4C0099;entryX=-0.002;entryY=0.757;entryDx=0;entryDy=0;entryPerimeter=0;exitX=0.11;exitY=0.11;exitDx=0;exitDy=0;exitPerimeter=0;" parent="1" source="SHjtx8wU5vL2sY_37cBv-31" target="SHjtx8wU5vL2sY_37cBv-158" edge="1">
          <mxGeometry relative="1" as="geometry">
            <mxPoint x="660" y="-390" as="targetPoint" />
            <Array as="points">
              <mxPoint x="289" y="220" />
              <mxPoint x="10" y="220" />
              <mxPoint x="10" y="-459" />
            </Array>
          </mxGeometry>
        </mxCell>
        <mxCell id="SHjtx8wU5vL2sY_37cBv-297" style="edgeStyle=orthogonalEdgeStyle;rounded=0;orthogonalLoop=1;jettySize=auto;html=1;dashed=1;strokeColor=#4C0099;entryX=0;entryY=0.7;entryDx=0;entryDy=0;exitX=0.11;exitY=0.11;exitDx=0;exitDy=0;exitPerimeter=0;" parent="1" source="SHjtx8wU5vL2sY_37cBv-31" target="1MLrccxjdp3mu_vWYp1V-29" edge="1">
          <mxGeometry relative="1" as="geometry">
            <mxPoint x="660" y="-550" as="targetPoint" />
            <Array as="points">
              <mxPoint x="289" y="220" />
              <mxPoint x="10" y="220" />
              <mxPoint x="10" y="-624" />
            </Array>
          </mxGeometry>
        </mxCell>
        <mxCell id="SHjtx8wU5vL2sY_37cBv-298" style="edgeStyle=orthogonalEdgeStyle;rounded=0;orthogonalLoop=1;jettySize=auto;html=1;dashed=1;strokeColor=#4C0099;entryX=-0.003;entryY=0.65;entryDx=0;entryDy=0;entryPerimeter=0;exitX=0.11;exitY=0.11;exitDx=0;exitDy=0;exitPerimeter=0;" parent="1" source="SHjtx8wU5vL2sY_37cBv-31" target="SHjtx8wU5vL2sY_37cBv-185" edge="1">
          <mxGeometry relative="1" as="geometry">
            <mxPoint x="1350" y="-360" as="targetPoint" />
            <Array as="points">
              <mxPoint x="289" y="220" />
              <mxPoint x="10" y="220" />
              <mxPoint x="10" y="-388" />
            </Array>
          </mxGeometry>
        </mxCell>
        <mxCell id="SHjtx8wU5vL2sY_37cBv-299" style="edgeStyle=orthogonalEdgeStyle;rounded=0;orthogonalLoop=1;jettySize=auto;html=1;dashed=1;strokeColor=#4C0099;entryX=0;entryY=0.75;entryDx=0;entryDy=0;entryPerimeter=0;exitX=0.11;exitY=0.11;exitDx=0;exitDy=0;exitPerimeter=0;" parent="1" source="SHjtx8wU5vL2sY_37cBv-31" target="SHjtx8wU5vL2sY_37cBv-184" edge="1">
          <mxGeometry relative="1" as="geometry">
            <mxPoint x="1330" y="-620" as="targetPoint" />
            <Array as="points">
              <mxPoint x="289" y="220" />
              <mxPoint x="10" y="220" />
              <mxPoint x="10" y="-540" />
            </Array>
          </mxGeometry>
        </mxCell>
        <mxCell id="SHjtx8wU5vL2sY_37cBv-300" style="edgeStyle=orthogonalEdgeStyle;rounded=0;orthogonalLoop=1;jettySize=auto;html=1;dashed=1;strokeColor=#4C0099;entryX=0;entryY=0.75;entryDx=0;entryDy=0;entryPerimeter=0;exitX=0.11;exitY=0.11;exitDx=0;exitDy=0;exitPerimeter=0;" parent="1" source="SHjtx8wU5vL2sY_37cBv-31" target="1MLrccxjdp3mu_vWYp1V-32" edge="1">
          <mxGeometry relative="1" as="geometry">
            <mxPoint x="1650" y="-610" as="targetPoint" />
            <Array as="points">
              <mxPoint x="289" y="220" />
              <mxPoint x="10" y="220" />
              <mxPoint x="10" y="-700" />
            </Array>
          </mxGeometry>
        </mxCell>
        <mxCell id="SHjtx8wU5vL2sY_37cBv-301" style="edgeStyle=orthogonalEdgeStyle;rounded=0;orthogonalLoop=1;jettySize=auto;html=1;dashed=1;entryX=1;entryY=0.7;entryDx=0;entryDy=0;strokeColor=#67AB9F;" parent="1" source="SHjtx8wU5vL2sY_37cBv-26" target="1MLrccxjdp3mu_vWYp1V-31" edge="1">
          <mxGeometry relative="1" as="geometry">
            <mxPoint x="630" y="30" as="targetPoint" />
            <Array as="points">
              <mxPoint x="580" y="50" />
              <mxPoint x="580" y="-144" />
            </Array>
          </mxGeometry>
        </mxCell>
        <mxCell id="SHjtx8wU5vL2sY_37cBv-302" style="edgeStyle=orthogonalEdgeStyle;rounded=0;orthogonalLoop=1;jettySize=auto;html=1;dashed=1;entryX=0.004;entryY=0.788;entryDx=0;entryDy=0;entryPerimeter=0;strokeColor=#67AB9F;" parent="1" source="SHjtx8wU5vL2sY_37cBv-26" target="SHjtx8wU5vL2sY_37cBv-160" edge="1">
          <mxGeometry relative="1" as="geometry">
            <mxPoint x="640" y="-130" as="targetPoint" />
            <Array as="points">
              <mxPoint x="580" y="50" />
              <mxPoint x="580" y="-297" />
            </Array>
          </mxGeometry>
        </mxCell>
        <mxCell id="SHjtx8wU5vL2sY_37cBv-303" style="edgeStyle=orthogonalEdgeStyle;rounded=0;orthogonalLoop=1;jettySize=auto;html=1;dashed=1;strokeColor=#67AB9F;entryX=0.004;entryY=0.875;entryDx=0;entryDy=0;entryPerimeter=0;" parent="1" source="SHjtx8wU5vL2sY_37cBv-26" target="SHjtx8wU5vL2sY_37cBv-158" edge="1">
          <mxGeometry relative="1" as="geometry">
            <mxPoint x="670" y="-220" as="targetPoint" />
            <Array as="points">
              <mxPoint x="580" y="50" />
              <mxPoint x="580" y="-450" />
            </Array>
          </mxGeometry>
        </mxCell>
        <mxCell id="SHjtx8wU5vL2sY_37cBv-304" style="edgeStyle=orthogonalEdgeStyle;rounded=0;orthogonalLoop=1;jettySize=auto;html=1;dashed=1;strokeColor=#67AB9F;entryX=0;entryY=0.813;entryDx=0;entryDy=0;entryPerimeter=0;" parent="1" source="SHjtx8wU5vL2sY_37cBv-26" target="1MLrccxjdp3mu_vWYp1V-29" edge="1">
          <mxGeometry relative="1" as="geometry">
            <mxPoint x="620" y="-260" as="targetPoint" />
            <Array as="points">
              <mxPoint x="580" y="50" />
              <mxPoint x="580" y="-615" />
            </Array>
          </mxGeometry>
        </mxCell>
        <mxCell id="SHjtx8wU5vL2sY_37cBv-305" style="edgeStyle=orthogonalEdgeStyle;rounded=0;orthogonalLoop=1;jettySize=auto;html=1;dashed=1;strokeColor=#67AB9F;entryX=0;entryY=0.875;entryDx=0;entryDy=0;entryPerimeter=0;" parent="1" source="SHjtx8wU5vL2sY_37cBv-26" target="SHjtx8wU5vL2sY_37cBv-185" edge="1">
          <mxGeometry relative="1" as="geometry">
            <mxPoint x="1220" y="-210" as="targetPoint" />
            <Array as="points">
              <mxPoint x="580" y="50" />
              <mxPoint x="580" y="-370" />
            </Array>
          </mxGeometry>
        </mxCell>
        <mxCell id="SHjtx8wU5vL2sY_37cBv-306" style="edgeStyle=orthogonalEdgeStyle;rounded=0;orthogonalLoop=1;jettySize=auto;html=1;dashed=1;strokeColor=#67AB9F;entryX=0;entryY=0.875;entryDx=0;entryDy=0;entryPerimeter=0;" parent="1" source="SHjtx8wU5vL2sY_37cBv-27" target="SHjtx8wU5vL2sY_37cBv-184" edge="1">
          <mxGeometry relative="1" as="geometry">
            <mxPoint x="1300" y="-320" as="targetPoint" />
            <Array as="points">
              <mxPoint x="580" y="120" />
              <mxPoint x="580" y="-530" />
            </Array>
          </mxGeometry>
        </mxCell>
        <mxCell id="SHjtx8wU5vL2sY_37cBv-307" style="edgeStyle=orthogonalEdgeStyle;rounded=0;orthogonalLoop=1;jettySize=auto;html=1;dashed=1;strokeColor=#67AB9F;entryX=0.003;entryY=0.846;entryDx=0;entryDy=0;entryPerimeter=0;" parent="1" source="SHjtx8wU5vL2sY_37cBv-26" target="1MLrccxjdp3mu_vWYp1V-32" edge="1">
          <mxGeometry relative="1" as="geometry">
            <mxPoint x="1440" y="-670" as="targetPoint" />
            <Array as="points">
              <mxPoint x="580" y="50" />
              <mxPoint x="580" y="-692" />
            </Array>
          </mxGeometry>
        </mxCell>
        <mxCell id="SHjtx8wU5vL2sY_37cBv-67" value="账单" style="swimlane;startSize=20;horizontal=0;" parent="1" vertex="1">
          <mxGeometry x="-180" y="490" width="2550" height="270" as="geometry" />
        </mxCell>
        <mxCell id="SHjtx8wU5vL2sY_37cBv-70" value="开始" style="strokeWidth=2;html=1;shape=mxgraph.flowchart.terminator;whiteSpace=wrap;" parent="SHjtx8wU5vL2sY_37cBv-67" vertex="1">
          <mxGeometry x="1140" y="130" width="80" height="30" as="geometry" />
        </mxCell>
        <mxCell id="SHjtx8wU5vL2sY_37cBv-75" value="大车订单等业务" style="edgeStyle=orthogonalEdgeStyle;rounded=0;orthogonalLoop=1;jettySize=auto;html=1;entryX=0;entryY=0.5;entryDx=0;entryDy=0;entryPerimeter=0;" parent="SHjtx8wU5vL2sY_37cBv-67" source="SHjtx8wU5vL2sY_37cBv-72" target="SHjtx8wU5vL2sY_37cBv-74" edge="1">
          <mxGeometry relative="1" as="geometry" />
        </mxCell>
        <mxCell id="SHjtx8wU5vL2sY_37cBv-76" style="edgeStyle=orthogonalEdgeStyle;rounded=0;orthogonalLoop=1;jettySize=auto;html=1;entryX=0;entryY=0.5;entryDx=0;entryDy=0;entryPerimeter=0;" parent="SHjtx8wU5vL2sY_37cBv-67" source="SHjtx8wU5vL2sY_37cBv-72" target="SHjtx8wU5vL2sY_37cBv-73" edge="1">
          <mxGeometry relative="1" as="geometry" />
        </mxCell>
        <mxCell id="SHjtx8wU5vL2sY_37cBv-77" value="企业订单等业务" style="edgeLabel;html=1;align=center;verticalAlign=middle;resizable=0;points=[];" parent="SHjtx8wU5vL2sY_37cBv-76" vertex="1" connectable="0">
          <mxGeometry x="0.17" relative="1" as="geometry">
            <mxPoint as="offset" />
          </mxGeometry>
        </mxCell>
        <mxCell id="SHjtx8wU5vL2sY_37cBv-72" value="业务分流" style="strokeWidth=2;html=1;shape=mxgraph.flowchart.decision;whiteSpace=wrap;" parent="SHjtx8wU5vL2sY_37cBv-67" vertex="1">
          <mxGeometry x="1280" y="117.5" width="100" height="55" as="geometry" />
        </mxCell>
        <mxCell id="SHjtx8wU5vL2sY_37cBv-73" value="发送账单流程" style="strokeWidth=2;html=1;shape=mxgraph.flowchart.terminator;whiteSpace=wrap;" parent="SHjtx8wU5vL2sY_37cBv-67" vertex="1">
          <mxGeometry x="1440" y="190" width="80" height="30" as="geometry" />
        </mxCell>
        <mxCell id="SHjtx8wU5vL2sY_37cBv-83" style="edgeStyle=orthogonalEdgeStyle;rounded=0;orthogonalLoop=1;jettySize=auto;html=1;entryX=0;entryY=0.5;entryDx=0;entryDy=0;entryPerimeter=0;" parent="SHjtx8wU5vL2sY_37cBv-67" source="SHjtx8wU5vL2sY_37cBv-74" target="SHjtx8wU5vL2sY_37cBv-80" edge="1">
          <mxGeometry relative="1" as="geometry" />
        </mxCell>
        <mxCell id="SHjtx8wU5vL2sY_37cBv-74" value="支付流程" style="strokeWidth=2;html=1;shape=mxgraph.flowchart.terminator;whiteSpace=wrap;" parent="SHjtx8wU5vL2sY_37cBv-67" vertex="1">
          <mxGeometry x="1440" y="65" width="80" height="30" as="geometry" />
        </mxCell>
        <mxCell id="SHjtx8wU5vL2sY_37cBv-144" style="edgeStyle=orthogonalEdgeStyle;rounded=0;orthogonalLoop=1;jettySize=auto;html=1;entryX=0;entryY=0.5;entryDx=0;entryDy=0;" parent="SHjtx8wU5vL2sY_37cBv-67" source="SHjtx8wU5vL2sY_37cBv-79" target="SHjtx8wU5vL2sY_37cBv-143" edge="1">
          <mxGeometry relative="1" as="geometry" />
        </mxCell>
        <mxCell id="SHjtx8wU5vL2sY_37cBv-79" value="司机填写后置费用" style="rounded=1;whiteSpace=wrap;html=1;absoluteArcSize=1;arcSize=14;strokeWidth=2;" parent="SHjtx8wU5vL2sY_37cBv-67" vertex="1">
          <mxGeometry x="1570" y="186.25" width="100" height="37.5" as="geometry" />
        </mxCell>
        <mxCell id="SHjtx8wU5vL2sY_37cBv-115" value="是" style="edgeStyle=orthogonalEdgeStyle;rounded=0;orthogonalLoop=1;jettySize=auto;html=1;" parent="SHjtx8wU5vL2sY_37cBv-67" source="SHjtx8wU5vL2sY_37cBv-80" target="SHjtx8wU5vL2sY_37cBv-93" edge="1">
          <mxGeometry relative="1" as="geometry" />
        </mxCell>
        <mxCell id="SHjtx8wU5vL2sY_37cBv-126" style="edgeStyle=orthogonalEdgeStyle;rounded=0;orthogonalLoop=1;jettySize=auto;html=1;entryX=0;entryY=0.5;entryDx=0;entryDy=0;entryPerimeter=0;exitX=0.5;exitY=0;exitDx=0;exitDy=0;exitPerimeter=0;" parent="SHjtx8wU5vL2sY_37cBv-67" source="SHjtx8wU5vL2sY_37cBv-80" target="SHjtx8wU5vL2sY_37cBv-116" edge="1">
          <mxGeometry relative="1" as="geometry">
            <Array as="points">
              <mxPoint x="1610" y="20" />
              <mxPoint x="1850" y="20" />
            </Array>
          </mxGeometry>
        </mxCell>
        <mxCell id="SHjtx8wU5vL2sY_37cBv-127" value="否" style="edgeLabel;html=1;align=center;verticalAlign=middle;resizable=0;points=[];" parent="SHjtx8wU5vL2sY_37cBv-126" vertex="1" connectable="0">
          <mxGeometry x="-0.8247" y="2" relative="1" as="geometry">
            <mxPoint as="offset" />
          </mxGeometry>
        </mxCell>
        <mxCell id="SHjtx8wU5vL2sY_37cBv-80" value="是否有后置费用" style="strokeWidth=2;html=1;shape=mxgraph.flowchart.decision;whiteSpace=wrap;" parent="SHjtx8wU5vL2sY_37cBv-67" vertex="1">
          <mxGeometry x="1560" y="55" width="100" height="50" as="geometry" />
        </mxCell>
        <mxCell id="SHjtx8wU5vL2sY_37cBv-71" style="edgeStyle=orthogonalEdgeStyle;rounded=0;orthogonalLoop=1;jettySize=auto;html=1;entryX=0;entryY=0.5;entryDx=0;entryDy=0;entryPerimeter=0;" parent="SHjtx8wU5vL2sY_37cBv-67" source="SHjtx8wU5vL2sY_37cBv-70" target="SHjtx8wU5vL2sY_37cBv-72" edge="1">
          <mxGeometry relative="1" as="geometry">
            <mxPoint x="1280" y="125" as="targetPoint" />
          </mxGeometry>
        </mxCell>
        <mxCell id="SHjtx8wU5vL2sY_37cBv-78" style="edgeStyle=orthogonalEdgeStyle;rounded=0;orthogonalLoop=1;jettySize=auto;html=1;entryX=0;entryY=0.5;entryDx=0;entryDy=0;" parent="SHjtx8wU5vL2sY_37cBv-67" source="SHjtx8wU5vL2sY_37cBv-73" target="SHjtx8wU5vL2sY_37cBv-79" edge="1">
          <mxGeometry relative="1" as="geometry">
            <mxPoint x="1560" y="45" as="targetPoint" />
          </mxGeometry>
        </mxCell>
        <mxCell id="SHjtx8wU5vL2sY_37cBv-117" style="edgeStyle=orthogonalEdgeStyle;rounded=0;orthogonalLoop=1;jettySize=auto;html=1;entryX=0;entryY=0.5;entryDx=0;entryDy=0;entryPerimeter=0;" parent="SHjtx8wU5vL2sY_37cBv-67" source="SHjtx8wU5vL2sY_37cBv-93" target="SHjtx8wU5vL2sY_37cBv-116" edge="1">
          <mxGeometry relative="1" as="geometry" />
        </mxCell>
        <mxCell id="SHjtx8wU5vL2sY_37cBv-93" value="用户填写后置费用" style="rounded=1;whiteSpace=wrap;html=1;absoluteArcSize=1;arcSize=14;strokeWidth=2;" parent="SHjtx8wU5vL2sY_37cBv-67" vertex="1">
          <mxGeometry x="1704" y="62.5" width="100" height="35" as="geometry" />
        </mxCell>
        <mxCell id="SHjtx8wU5vL2sY_37cBv-134" style="edgeStyle=orthogonalEdgeStyle;rounded=0;orthogonalLoop=1;jettySize=auto;html=1;entryX=0.625;entryY=0;entryDx=0;entryDy=0;entryPerimeter=0;exitX=1;exitY=0.5;exitDx=0;exitDy=0;" parent="SHjtx8wU5vL2sY_37cBv-67" source="SHjtx8wU5vL2sY_37cBv-95" target="SHjtx8wU5vL2sY_37cBv-121" edge="1">
          <mxGeometry relative="1" as="geometry" />
        </mxCell>
        <mxCell id="SHjtx8wU5vL2sY_37cBv-95" value="48小时自动完单" style="rounded=1;whiteSpace=wrap;html=1;absoluteArcSize=1;arcSize=14;strokeWidth=2;" parent="SHjtx8wU5vL2sY_37cBv-67" vertex="1">
          <mxGeometry x="2290" y="62.5" width="100" height="35" as="geometry" />
        </mxCell>
        <mxCell id="SHjtx8wU5vL2sY_37cBv-119" value="是" style="edgeStyle=orthogonalEdgeStyle;rounded=0;orthogonalLoop=1;jettySize=auto;html=1;entryX=0;entryY=0.5;entryDx=0;entryDy=0;exitX=1;exitY=0.5;exitDx=0;exitDy=0;exitPerimeter=0;entryPerimeter=0;" parent="SHjtx8wU5vL2sY_37cBv-67" source="SHjtx8wU5vL2sY_37cBv-116" target="SHjtx8wU5vL2sY_37cBv-129" edge="1">
          <mxGeometry relative="1" as="geometry" />
        </mxCell>
        <mxCell id="SHjtx8wU5vL2sY_37cBv-135" style="edgeStyle=orthogonalEdgeStyle;rounded=0;orthogonalLoop=1;jettySize=auto;html=1;entryX=0.5;entryY=0;entryDx=0;entryDy=0;exitX=0.5;exitY=0;exitDx=0;exitDy=0;exitPerimeter=0;" parent="SHjtx8wU5vL2sY_37cBv-67" source="SHjtx8wU5vL2sY_37cBv-116" target="SHjtx8wU5vL2sY_37cBv-95" edge="1">
          <mxGeometry relative="1" as="geometry">
            <Array as="points">
              <mxPoint x="1900" y="20" />
              <mxPoint x="2340" y="20" />
            </Array>
          </mxGeometry>
        </mxCell>
        <mxCell id="SHjtx8wU5vL2sY_37cBv-136" value="否" style="edgeLabel;html=1;align=center;verticalAlign=middle;resizable=0;points=[];" parent="SHjtx8wU5vL2sY_37cBv-135" vertex="1" connectable="0">
          <mxGeometry x="-0.9297" y="3" relative="1" as="geometry">
            <mxPoint as="offset" />
          </mxGeometry>
        </mxCell>
        <mxCell id="SHjtx8wU5vL2sY_37cBv-116" value="是否现金支付" style="strokeWidth=2;html=1;shape=mxgraph.flowchart.decision;whiteSpace=wrap;" parent="SHjtx8wU5vL2sY_37cBv-67" vertex="1">
          <mxGeometry x="1850" y="55" width="100" height="50" as="geometry" />
        </mxCell>
        <mxCell id="SHjtx8wU5vL2sY_37cBv-133" style="edgeStyle=orthogonalEdgeStyle;rounded=0;orthogonalLoop=1;jettySize=auto;html=1;" parent="SHjtx8wU5vL2sY_37cBv-67" source="SHjtx8wU5vL2sY_37cBv-118" target="SHjtx8wU5vL2sY_37cBv-95" edge="1">
          <mxGeometry relative="1" as="geometry" />
        </mxCell>
        <mxCell id="SHjtx8wU5vL2sY_37cBv-118" value="司机现金结清&lt;br&gt;（状态为12）" style="rounded=1;whiteSpace=wrap;html=1;absoluteArcSize=1;arcSize=14;strokeWidth=2;" parent="SHjtx8wU5vL2sY_37cBv-67" vertex="1">
          <mxGeometry x="2160" y="66.25" width="80" height="27.5" as="geometry" />
        </mxCell>
        <mxCell id="SHjtx8wU5vL2sY_37cBv-121" value="结束&lt;br&gt;（状态为2）" style="strokeWidth=2;html=1;shape=mxgraph.flowchart.terminator;whiteSpace=wrap;" parent="SHjtx8wU5vL2sY_37cBv-67" vertex="1">
          <mxGeometry x="2440" y="130" width="80" height="30" as="geometry" />
        </mxCell>
        <mxCell id="SHjtx8wU5vL2sY_37cBv-132" value="是" style="edgeStyle=orthogonalEdgeStyle;rounded=0;orthogonalLoop=1;jettySize=auto;html=1;entryX=0;entryY=0.5;entryDx=0;entryDy=0;" parent="SHjtx8wU5vL2sY_37cBv-67" source="SHjtx8wU5vL2sY_37cBv-129" target="SHjtx8wU5vL2sY_37cBv-118" edge="1">
          <mxGeometry relative="1" as="geometry" />
        </mxCell>
        <mxCell id="SHjtx8wU5vL2sY_37cBv-137" style="edgeStyle=orthogonalEdgeStyle;rounded=0;orthogonalLoop=1;jettySize=auto;html=1;exitX=0.5;exitY=1;exitDx=0;exitDy=0;exitPerimeter=0;" parent="SHjtx8wU5vL2sY_37cBv-67" source="SHjtx8wU5vL2sY_37cBv-129" target="SHjtx8wU5vL2sY_37cBv-121" edge="1">
          <mxGeometry relative="1" as="geometry">
            <Array as="points">
              <mxPoint x="2060" y="145" />
            </Array>
          </mxGeometry>
        </mxCell>
        <mxCell id="SHjtx8wU5vL2sY_37cBv-142" value="否&lt;br&gt;线上支付运单直接结束" style="edgeLabel;html=1;align=center;verticalAlign=middle;resizable=0;points=[];" parent="SHjtx8wU5vL2sY_37cBv-137" vertex="1" connectable="0">
          <mxGeometry x="-0.8952" y="1" relative="1" as="geometry">
            <mxPoint as="offset" />
          </mxGeometry>
        </mxCell>
        <mxCell id="SHjtx8wU5vL2sY_37cBv-129" value="是否为现金单" style="strokeWidth=2;html=1;shape=mxgraph.flowchart.decision;whiteSpace=wrap;" parent="SHjtx8wU5vL2sY_37cBv-67" vertex="1">
          <mxGeometry x="2010" y="55" width="100" height="50" as="geometry" />
        </mxCell>
        <mxCell id="SHjtx8wU5vL2sY_37cBv-143" value="发送账单&lt;br&gt;（状态为13）" style="rounded=1;whiteSpace=wrap;html=1;absoluteArcSize=1;arcSize=14;strokeWidth=2;" parent="SHjtx8wU5vL2sY_37cBv-67" vertex="1">
          <mxGeometry x="1720" y="173.13" width="100" height="63.75" as="geometry" />
        </mxCell>
        <mxCell id="SHjtx8wU5vL2sY_37cBv-145" style="edgeStyle=orthogonalEdgeStyle;rounded=0;orthogonalLoop=1;jettySize=auto;html=1;exitX=0.993;exitY=0.141;exitDx=0;exitDy=0;entryX=0.172;entryY=0.959;entryDx=0;entryDy=0;entryPerimeter=0;exitPerimeter=0;" parent="SHjtx8wU5vL2sY_37cBv-67" source="SHjtx8wU5vL2sY_37cBv-143" target="SHjtx8wU5vL2sY_37cBv-121" edge="1">
          <mxGeometry relative="1" as="geometry">
            <mxPoint x="2150.0000000000005" y="350" as="targetPoint" />
            <Array as="points">
              <mxPoint x="1819" y="180" />
              <mxPoint x="2454" y="180" />
            </Array>
          </mxGeometry>
        </mxCell>
        <mxCell id="SHjtx8wU5vL2sY_37cBv-146" value="1、用户确认账单" style="edgeLabel;html=1;align=center;verticalAlign=middle;resizable=0;points=[];" parent="SHjtx8wU5vL2sY_37cBv-145" vertex="1" connectable="0">
          <mxGeometry x="-0.7587" y="3" relative="1" as="geometry">
            <mxPoint x="6.55" y="-0.76" as="offset" />
          </mxGeometry>
        </mxCell>
        <mxCell id="SHjtx8wU5vL2sY_37cBv-147" style="edgeStyle=orthogonalEdgeStyle;rounded=0;orthogonalLoop=1;jettySize=auto;html=1;entryX=0.319;entryY=0.982;entryDx=0;entryDy=0;entryPerimeter=0;" parent="SHjtx8wU5vL2sY_37cBv-67" source="SHjtx8wU5vL2sY_37cBv-143" target="SHjtx8wU5vL2sY_37cBv-121" edge="1">
          <mxGeometry relative="1" as="geometry">
            <mxPoint x="2120.0000000000005" y="340" as="targetPoint" />
            <mxPoint x="1820" y="190" as="sourcePoint" />
            <Array as="points">
              <mxPoint x="2465" y="190" />
            </Array>
          </mxGeometry>
        </mxCell>
        <mxCell id="SHjtx8wU5vL2sY_37cBv-148" value="2、司机现金结清" style="edgeLabel;html=1;align=center;verticalAlign=middle;resizable=0;points=[];" parent="SHjtx8wU5vL2sY_37cBv-147" vertex="1" connectable="0">
          <mxGeometry x="-0.8532" relative="1" as="geometry">
            <mxPoint x="28.970000000000006" as="offset" />
          </mxGeometry>
        </mxCell>
        <mxCell id="SHjtx8wU5vL2sY_37cBv-149" style="edgeStyle=orthogonalEdgeStyle;rounded=0;orthogonalLoop=1;jettySize=auto;html=1;exitX=0.993;exitY=0.595;exitDx=0;exitDy=0;entryX=0.5;entryY=1;entryDx=0;entryDy=0;entryPerimeter=0;exitPerimeter=0;" parent="SHjtx8wU5vL2sY_37cBv-67" source="SHjtx8wU5vL2sY_37cBv-143" target="SHjtx8wU5vL2sY_37cBv-121" edge="1">
          <mxGeometry relative="1" as="geometry">
            <mxPoint x="2220.0000000000005" y="380" as="targetPoint" />
            <Array as="points">
              <mxPoint x="2480" y="211" />
            </Array>
          </mxGeometry>
        </mxCell>
        <mxCell id="SHjtx8wU5vL2sY_37cBv-151" value="3、现金单无后置费用48小时自动结清" style="edgeLabel;html=1;align=center;verticalAlign=middle;resizable=0;points=[];" parent="SHjtx8wU5vL2sY_37cBv-149" vertex="1" connectable="0">
          <mxGeometry x="-0.7761" relative="1" as="geometry">
            <mxPoint x="66.58" as="offset" />
          </mxGeometry>
        </mxCell>
        <mxCell id="SHjtx8wU5vL2sY_37cBv-152" style="edgeStyle=orthogonalEdgeStyle;rounded=0;orthogonalLoop=1;jettySize=auto;html=1;exitX=1;exitY=0.75;exitDx=0;exitDy=0;" parent="SHjtx8wU5vL2sY_37cBv-67" source="SHjtx8wU5vL2sY_37cBv-143" target="SHjtx8wU5vL2sY_37cBv-121" edge="1">
          <mxGeometry relative="1" as="geometry">
            <mxPoint x="2500" y="260" as="targetPoint" />
            <Array as="points">
              <mxPoint x="1820" y="230" />
              <mxPoint x="2500" y="230" />
            </Array>
          </mxGeometry>
        </mxCell>
        <mxCell id="SHjtx8wU5vL2sY_37cBv-154" value="4、企业单48小时用户未确认" style="edgeLabel;html=1;align=center;verticalAlign=middle;resizable=0;points=[];" parent="SHjtx8wU5vL2sY_37cBv-152" vertex="1" connectable="0">
          <mxGeometry x="-0.7876" relative="1" as="geometry">
            <mxPoint x="39.31" y="0.62" as="offset" />
          </mxGeometry>
        </mxCell>
        <mxCell id="SHjtx8wU5vL2sY_37cBv-69" style="edgeStyle=orthogonalEdgeStyle;rounded=0;orthogonalLoop=1;jettySize=auto;html=1;entryX=0.5;entryY=0;entryDx=0;entryDy=0;entryPerimeter=0;" parent="1" source="SHjtx8wU5vL2sY_37cBv-45" target="SHjtx8wU5vL2sY_37cBv-70" edge="1">
          <mxGeometry relative="1" as="geometry">
            <mxPoint x="1030" y="540" as="targetPoint" />
          </mxGeometry>
        </mxCell>
        <mxCell id="SHjtx8wU5vL2sY_37cBv-310" style="edgeStyle=orthogonalEdgeStyle;rounded=0;orthogonalLoop=1;jettySize=auto;html=1;dashed=1;exitX=1;exitY=0;exitDx=0;exitDy=0;strokeColor=#FFCCE6;" parent="1" source="SHjtx8wU5vL2sY_37cBv-39" target="1MLrccxjdp3mu_vWYp1V-31" edge="1">
          <mxGeometry relative="1" as="geometry">
            <mxPoint x="620" y="-130" as="targetPoint" />
            <Array as="points">
              <mxPoint x="510" y="200" />
              <mxPoint x="600" y="200" />
              <mxPoint x="600" y="-150" />
            </Array>
          </mxGeometry>
        </mxCell>
        <mxCell id="SHjtx8wU5vL2sY_37cBv-311" style="edgeStyle=orthogonalEdgeStyle;rounded=0;orthogonalLoop=1;jettySize=auto;html=1;dashed=1;strokeColor=#FFCCE6;entryX=-0.002;entryY=0.867;entryDx=0;entryDy=0;entryPerimeter=0;exitX=1;exitY=0;exitDx=0;exitDy=0;" parent="1" source="SHjtx8wU5vL2sY_37cBv-39" target="SHjtx8wU5vL2sY_37cBv-160" edge="1">
          <mxGeometry relative="1" as="geometry">
            <mxPoint x="670" y="-150" as="targetPoint" />
            <Array as="points">
              <mxPoint x="510" y="200" />
              <mxPoint x="600" y="200" />
              <mxPoint x="600" y="-291" />
            </Array>
          </mxGeometry>
        </mxCell>
        <mxCell id="SHjtx8wU5vL2sY_37cBv-312" style="edgeStyle=orthogonalEdgeStyle;rounded=0;orthogonalLoop=1;jettySize=auto;html=1;dashed=1;strokeColor=#FFCCE6;entryX=0.01;entryY=0.927;entryDx=0;entryDy=0;entryPerimeter=0;exitX=1;exitY=0;exitDx=0;exitDy=0;" parent="1" source="SHjtx8wU5vL2sY_37cBv-39" target="SHjtx8wU5vL2sY_37cBv-158" edge="1">
          <mxGeometry relative="1" as="geometry">
            <mxPoint x="650" y="-310" as="targetPoint" />
            <Array as="points">
              <mxPoint x="510" y="200" />
              <mxPoint x="600" y="200" />
              <mxPoint x="600" y="-446" />
            </Array>
          </mxGeometry>
        </mxCell>
        <mxCell id="SHjtx8wU5vL2sY_37cBv-313" style="edgeStyle=orthogonalEdgeStyle;rounded=0;orthogonalLoop=1;jettySize=auto;html=1;dashed=1;strokeColor=#FFCCE6;entryX=0;entryY=0.875;entryDx=0;entryDy=0;entryPerimeter=0;exitX=1;exitY=0;exitDx=0;exitDy=0;" parent="1" source="SHjtx8wU5vL2sY_37cBv-39" target="1MLrccxjdp3mu_vWYp1V-29" edge="1">
          <mxGeometry relative="1" as="geometry">
            <mxPoint x="650" y="-500" as="targetPoint" />
            <Array as="points">
              <mxPoint x="510" y="200" />
              <mxPoint x="600" y="200" />
              <mxPoint x="600" y="-610" />
            </Array>
          </mxGeometry>
        </mxCell>
        <mxCell id="SHjtx8wU5vL2sY_37cBv-314" style="edgeStyle=orthogonalEdgeStyle;rounded=0;orthogonalLoop=1;jettySize=auto;html=1;dashed=1;strokeColor=#FFCCE6;entryX=1;entryY=0.875;entryDx=0;entryDy=0;entryPerimeter=0;exitX=1;exitY=0;exitDx=0;exitDy=0;" parent="1" source="SHjtx8wU5vL2sY_37cBv-39" target="SHjtx8wU5vL2sY_37cBv-185" edge="1">
          <mxGeometry relative="1" as="geometry">
            <mxPoint x="1870" y="-350" as="targetPoint" />
            <Array as="points">
              <mxPoint x="510" y="200" />
              <mxPoint x="600" y="200" />
              <mxPoint x="600" y="-150" />
              <mxPoint x="1960" y="-150" />
              <mxPoint x="1960" y="-370" />
            </Array>
          </mxGeometry>
        </mxCell>
        <mxCell id="SHjtx8wU5vL2sY_37cBv-315" style="edgeStyle=orthogonalEdgeStyle;rounded=0;orthogonalLoop=1;jettySize=auto;html=1;dashed=1;strokeColor=#FFCCE6;entryX=1;entryY=0.875;entryDx=0;entryDy=0;entryPerimeter=0;exitX=1;exitY=0;exitDx=0;exitDy=0;" parent="1" source="SHjtx8wU5vL2sY_37cBv-39" target="SHjtx8wU5vL2sY_37cBv-184" edge="1">
          <mxGeometry relative="1" as="geometry">
            <mxPoint x="1960" y="-400" as="targetPoint" />
            <Array as="points">
              <mxPoint x="510" y="200" />
              <mxPoint x="600" y="200" />
              <mxPoint x="600" y="-150" />
              <mxPoint x="1960" y="-150" />
              <mxPoint x="1960" y="-530" />
            </Array>
          </mxGeometry>
        </mxCell>
        <mxCell id="SHjtx8wU5vL2sY_37cBv-316" style="edgeStyle=orthogonalEdgeStyle;rounded=0;orthogonalLoop=1;jettySize=auto;html=1;dashed=1;strokeColor=#FFCCE6;entryX=1;entryY=0.875;entryDx=0;entryDy=0;entryPerimeter=0;exitX=1;exitY=0;exitDx=0;exitDy=0;" parent="1" source="SHjtx8wU5vL2sY_37cBv-39" target="1MLrccxjdp3mu_vWYp1V-32" edge="1">
          <mxGeometry relative="1" as="geometry">
            <mxPoint x="1990" y="-670" as="targetPoint" />
            <Array as="points">
              <mxPoint x="510" y="200" />
              <mxPoint x="600" y="200" />
              <mxPoint x="600" y="-150" />
              <mxPoint x="1960" y="-150" />
              <mxPoint x="1960" y="-690" />
            </Array>
          </mxGeometry>
        </mxCell>
        <mxCell id="SHjtx8wU5vL2sY_37cBv-317" style="edgeStyle=orthogonalEdgeStyle;rounded=0;orthogonalLoop=1;jettySize=auto;html=1;dashed=1;entryX=1;entryY=0.5;entryDx=0;entryDy=0;strokeColor=#FF3333;" parent="1" source="SHjtx8wU5vL2sY_37cBv-49" target="1MLrccxjdp3mu_vWYp1V-31" edge="1">
          <mxGeometry relative="1" as="geometry">
            <mxPoint x="530" y="-130" as="targetPoint" />
            <Array as="points">
              <mxPoint x="590" y="370" />
              <mxPoint x="590" y="-160" />
            </Array>
          </mxGeometry>
        </mxCell>
        <mxCell id="SHjtx8wU5vL2sY_37cBv-318" style="edgeStyle=orthogonalEdgeStyle;rounded=0;orthogonalLoop=1;jettySize=auto;html=1;dashed=1;strokeColor=#FF3333;entryX=1.004;entryY=0.851;entryDx=0;entryDy=0;entryPerimeter=0;" parent="1" source="SHjtx8wU5vL2sY_37cBv-49" target="SHjtx8wU5vL2sY_37cBv-160" edge="1">
          <mxGeometry relative="1" as="geometry">
            <mxPoint x="1000" y="-290" as="targetPoint" />
            <Array as="points">
              <mxPoint x="590" y="370" />
              <mxPoint x="590" y="-160" />
              <mxPoint x="1010" y="-160" />
              <mxPoint x="1010" y="-292" />
            </Array>
          </mxGeometry>
        </mxCell>
        <mxCell id="SHjtx8wU5vL2sY_37cBv-319" style="edgeStyle=orthogonalEdgeStyle;rounded=0;orthogonalLoop=1;jettySize=auto;html=1;dashed=1;strokeColor=#FF3333;" parent="1" source="SHjtx8wU5vL2sY_37cBv-49" edge="1">
          <mxGeometry relative="1" as="geometry">
            <mxPoint x="990" y="-450" as="targetPoint" />
            <Array as="points">
              <mxPoint x="590" y="370" />
              <mxPoint x="590" y="-160" />
              <mxPoint x="1010" y="-160" />
              <mxPoint x="1010" y="-450" />
            </Array>
          </mxGeometry>
        </mxCell>
        <mxCell id="SHjtx8wU5vL2sY_37cBv-320" style="edgeStyle=orthogonalEdgeStyle;rounded=0;orthogonalLoop=1;jettySize=auto;html=1;dashed=1;strokeColor=#FF3333;entryX=1;entryY=0.841;entryDx=0;entryDy=0;entryPerimeter=0;" parent="1" source="SHjtx8wU5vL2sY_37cBv-49" target="1MLrccxjdp3mu_vWYp1V-29" edge="1">
          <mxGeometry relative="1" as="geometry">
            <mxPoint x="1030" y="-500" as="targetPoint" />
            <Array as="points">
              <mxPoint x="590" y="370" />
              <mxPoint x="590" y="-160" />
              <mxPoint x="1010" y="-160" />
              <mxPoint x="1010" y="-613" />
            </Array>
          </mxGeometry>
        </mxCell>
        <mxCell id="SHjtx8wU5vL2sY_37cBv-322" style="edgeStyle=orthogonalEdgeStyle;rounded=0;orthogonalLoop=1;jettySize=auto;html=1;dashed=1;strokeColor=#FF3333;entryX=1.002;entryY=0.763;entryDx=0;entryDy=0;entryPerimeter=0;" parent="1" source="SHjtx8wU5vL2sY_37cBv-49" target="SHjtx8wU5vL2sY_37cBv-185" edge="1">
          <mxGeometry relative="1" as="geometry">
            <mxPoint x="1900" y="-310" as="targetPoint" />
            <Array as="points">
              <mxPoint x="590" y="370" />
              <mxPoint x="590" y="-160" />
              <mxPoint x="1970" y="-160" />
              <mxPoint x="1970" y="-379" />
            </Array>
          </mxGeometry>
        </mxCell>
        <mxCell id="SHjtx8wU5vL2sY_37cBv-323" style="edgeStyle=orthogonalEdgeStyle;rounded=0;orthogonalLoop=1;jettySize=auto;html=1;dashed=1;strokeColor=#FF3333;entryX=1.008;entryY=0.78;entryDx=0;entryDy=0;entryPerimeter=0;" parent="1" source="SHjtx8wU5vL2sY_37cBv-49" target="SHjtx8wU5vL2sY_37cBv-184" edge="1">
          <mxGeometry relative="1" as="geometry">
            <mxPoint x="1940" y="-544" as="targetPoint" />
            <Array as="points">
              <mxPoint x="590" y="370" />
              <mxPoint x="590" y="-160" />
              <mxPoint x="1970" y="-160" />
              <mxPoint x="1970" y="-538" />
              <mxPoint x="1942" y="-538" />
            </Array>
          </mxGeometry>
        </mxCell>
        <mxCell id="SHjtx8wU5vL2sY_37cBv-324" style="edgeStyle=orthogonalEdgeStyle;rounded=0;orthogonalLoop=1;jettySize=auto;html=1;dashed=1;strokeColor=#FF3333;entryX=1;entryY=0.7;entryDx=0;entryDy=0;" parent="1" source="SHjtx8wU5vL2sY_37cBv-49" target="1MLrccxjdp3mu_vWYp1V-32" edge="1">
          <mxGeometry relative="1" as="geometry">
            <mxPoint x="1960" y="-580" as="targetPoint" />
            <Array as="points">
              <mxPoint x="590" y="370" />
              <mxPoint x="590" y="-160" />
              <mxPoint x="1970" y="-160" />
              <mxPoint x="1970" y="-704" />
            </Array>
          </mxGeometry>
        </mxCell>
        <mxCell id="SHjtx8wU5vL2sY_37cBv-325" style="edgeStyle=orthogonalEdgeStyle;rounded=0;orthogonalLoop=1;jettySize=auto;html=1;dashed=1;entryX=1.006;entryY=0.395;entryDx=0;entryDy=0;entryPerimeter=0;strokeColor=#00FF00;exitX=0.5;exitY=0;exitDx=0;exitDy=0;" parent="1" source="SHjtx8wU5vL2sY_37cBv-41" target="1MLrccxjdp3mu_vWYp1V-31" edge="1">
          <mxGeometry relative="1" as="geometry">
            <mxPoint x="490" y="-180" as="targetPoint" />
            <Array as="points">
              <mxPoint x="650" y="-168" />
            </Array>
          </mxGeometry>
        </mxCell>
        <mxCell id="SHjtx8wU5vL2sY_37cBv-326" style="edgeStyle=orthogonalEdgeStyle;rounded=0;orthogonalLoop=1;jettySize=auto;html=1;dashed=1;strokeColor=#00FF00;entryX=0.996;entryY=0.766;entryDx=0;entryDy=0;entryPerimeter=0;" parent="1" source="SHjtx8wU5vL2sY_37cBv-41" target="SHjtx8wU5vL2sY_37cBv-160" edge="1">
          <mxGeometry relative="1" as="geometry">
            <mxPoint x="1020" y="-300" as="targetPoint" />
            <Array as="points">
              <mxPoint x="650" y="-170" />
              <mxPoint x="1020" y="-170" />
              <mxPoint x="1020" y="-299" />
            </Array>
          </mxGeometry>
        </mxCell>
        <mxCell id="SHjtx8wU5vL2sY_37cBv-327" style="edgeStyle=orthogonalEdgeStyle;rounded=0;orthogonalLoop=1;jettySize=auto;html=1;dashed=1;strokeColor=#00FF00;entryX=1.004;entryY=0.759;entryDx=0;entryDy=0;entryPerimeter=0;" parent="1" source="SHjtx8wU5vL2sY_37cBv-41" target="SHjtx8wU5vL2sY_37cBv-158" edge="1">
          <mxGeometry relative="1" as="geometry">
            <mxPoint x="1020" y="-450" as="targetPoint" />
            <Array as="points">
              <mxPoint x="650" y="-170" />
              <mxPoint x="1020" y="-170" />
              <mxPoint x="1020" y="-459" />
            </Array>
          </mxGeometry>
        </mxCell>
        <mxCell id="SHjtx8wU5vL2sY_37cBv-328" style="edgeStyle=orthogonalEdgeStyle;rounded=0;orthogonalLoop=1;jettySize=auto;html=1;dashed=1;strokeColor=#00FF00;entryX=1;entryY=0.7;entryDx=0;entryDy=0;" parent="1" source="SHjtx8wU5vL2sY_37cBv-41" target="1MLrccxjdp3mu_vWYp1V-29" edge="1">
          <mxGeometry relative="1" as="geometry">
            <mxPoint x="1030" y="-510" as="targetPoint" />
            <Array as="points">
              <mxPoint x="650" y="-170" />
              <mxPoint x="1020" y="-170" />
              <mxPoint x="1020" y="-624" />
            </Array>
          </mxGeometry>
        </mxCell>
        <mxCell id="SHjtx8wU5vL2sY_37cBv-329" style="edgeStyle=orthogonalEdgeStyle;rounded=0;orthogonalLoop=1;jettySize=auto;html=1;dashed=1;strokeColor=#00FF00;entryX=1;entryY=0.7;entryDx=0;entryDy=0;" parent="1" source="SHjtx8wU5vL2sY_37cBv-41" target="SHjtx8wU5vL2sY_37cBv-185" edge="1">
          <mxGeometry relative="1" as="geometry">
            <mxPoint x="1980" y="-390" as="targetPoint" />
            <Array as="points">
              <mxPoint x="650" y="-170" />
              <mxPoint x="1980" y="-170" />
              <mxPoint x="1980" y="-384" />
            </Array>
          </mxGeometry>
        </mxCell>
        <mxCell id="SHjtx8wU5vL2sY_37cBv-330" style="edgeStyle=orthogonalEdgeStyle;rounded=0;orthogonalLoop=1;jettySize=auto;html=1;dashed=1;strokeColor=#00FF00;entryX=1;entryY=0.7;entryDx=0;entryDy=0;" parent="1" source="SHjtx8wU5vL2sY_37cBv-41" target="SHjtx8wU5vL2sY_37cBv-184" edge="1">
          <mxGeometry relative="1" as="geometry">
            <mxPoint x="2000" y="-470" as="targetPoint" />
            <Array as="points">
              <mxPoint x="650" y="-170" />
              <mxPoint x="1980" y="-170" />
              <mxPoint x="1980" y="-544" />
            </Array>
          </mxGeometry>
        </mxCell>
        <mxCell id="SHjtx8wU5vL2sY_37cBv-331" style="edgeStyle=orthogonalEdgeStyle;rounded=0;orthogonalLoop=1;jettySize=auto;html=1;dashed=1;strokeColor=#00FF00;entryX=0.998;entryY=0.588;entryDx=0;entryDy=0;entryPerimeter=0;" parent="1" source="SHjtx8wU5vL2sY_37cBv-41" target="1MLrccxjdp3mu_vWYp1V-32" edge="1">
          <mxGeometry relative="1" as="geometry">
            <mxPoint x="2070" y="-550" as="targetPoint" />
            <Array as="points">
              <mxPoint x="650" y="-170" />
              <mxPoint x="1980" y="-170" />
              <mxPoint x="1980" y="-713" />
            </Array>
          </mxGeometry>
        </mxCell>
        <mxCell id="SHjtx8wU5vL2sY_37cBv-332" style="edgeStyle=orthogonalEdgeStyle;rounded=0;orthogonalLoop=1;jettySize=auto;html=1;dashed=1;entryX=1;entryY=0.327;entryDx=0;entryDy=0;entryPerimeter=0;exitX=0.609;exitY=0.008;exitDx=0;exitDy=0;exitPerimeter=0;" parent="1" source="SHjtx8wU5vL2sY_37cBv-51" target="1MLrccxjdp3mu_vWYp1V-31" edge="1">
          <mxGeometry relative="1" as="geometry">
            <mxPoint x="390" y="-160" as="targetPoint" />
            <mxPoint x="760" y="340" as="sourcePoint" />
            <Array as="points">
              <mxPoint x="750" y="-174" />
            </Array>
          </mxGeometry>
        </mxCell>
        <mxCell id="SHjtx8wU5vL2sY_37cBv-333" style="edgeStyle=orthogonalEdgeStyle;rounded=0;orthogonalLoop=1;jettySize=auto;html=1;entryX=1;entryY=0.7;entryDx=0;entryDy=0;dashed=1;strokeColor=#000000;" parent="1" target="SHjtx8wU5vL2sY_37cBv-160" edge="1">
          <mxGeometry relative="1" as="geometry">
            <mxPoint x="750" y="350" as="sourcePoint" />
            <Array as="points">
              <mxPoint x="750" y="-180" />
              <mxPoint x="1040" y="-180" />
              <mxPoint x="1040" y="-304" />
            </Array>
          </mxGeometry>
        </mxCell>
        <mxCell id="SHjtx8wU5vL2sY_37cBv-334" style="edgeStyle=orthogonalEdgeStyle;rounded=0;orthogonalLoop=1;jettySize=auto;html=1;dashed=1;strokeColor=#000000;entryX=1;entryY=0.7;entryDx=0;entryDy=0;" parent="1" source="SHjtx8wU5vL2sY_37cBv-51" target="SHjtx8wU5vL2sY_37cBv-158" edge="1">
          <mxGeometry relative="1" as="geometry">
            <mxPoint x="1060" y="-410" as="targetPoint" />
            <Array as="points">
              <mxPoint x="750" y="-180" />
              <mxPoint x="1040" y="-180" />
              <mxPoint x="1040" y="-464" />
            </Array>
          </mxGeometry>
        </mxCell>
        <mxCell id="SHjtx8wU5vL2sY_37cBv-335" style="edgeStyle=orthogonalEdgeStyle;rounded=0;orthogonalLoop=1;jettySize=auto;html=1;dashed=1;strokeColor=#000000;entryX=1.004;entryY=0.588;entryDx=0;entryDy=0;entryPerimeter=0;" parent="1" target="1MLrccxjdp3mu_vWYp1V-29" edge="1">
          <mxGeometry relative="1" as="geometry">
            <mxPoint x="1090" y="-440" as="targetPoint" />
            <mxPoint x="750" y="340" as="sourcePoint" />
            <Array as="points">
              <mxPoint x="750" y="-180" />
              <mxPoint x="1040" y="-180" />
              <mxPoint x="1040" y="-633" />
            </Array>
          </mxGeometry>
        </mxCell>
        <mxCell id="SHjtx8wU5vL2sY_37cBv-336" style="edgeStyle=orthogonalEdgeStyle;rounded=0;orthogonalLoop=1;jettySize=auto;html=1;entryX=1.003;entryY=0.576;entryDx=0;entryDy=0;dashed=1;strokeColor=#000000;entryPerimeter=0;" parent="1" source="SHjtx8wU5vL2sY_37cBv-51" target="SHjtx8wU5vL2sY_37cBv-185" edge="1">
          <mxGeometry relative="1" as="geometry">
            <Array as="points">
              <mxPoint x="750" y="-180" />
              <mxPoint x="1990" y="-180" />
              <mxPoint x="1990" y="-394" />
            </Array>
          </mxGeometry>
        </mxCell>
        <mxCell id="SHjtx8wU5vL2sY_37cBv-337" style="edgeStyle=orthogonalEdgeStyle;rounded=0;orthogonalLoop=1;jettySize=auto;html=1;dashed=1;strokeColor=#000000;entryX=1.003;entryY=0.582;entryDx=0;entryDy=0;entryPerimeter=0;" parent="1" source="SHjtx8wU5vL2sY_37cBv-51" target="SHjtx8wU5vL2sY_37cBv-184" edge="1">
          <mxGeometry relative="1" as="geometry">
            <mxPoint x="2020" y="-520" as="targetPoint" />
            <Array as="points">
              <mxPoint x="750" y="-180" />
              <mxPoint x="1990" y="-180" />
              <mxPoint x="1990" y="-553" />
              <mxPoint x="1941" y="-553" />
            </Array>
          </mxGeometry>
        </mxCell>
        <mxCell id="SHjtx8wU5vL2sY_37cBv-338" style="edgeStyle=orthogonalEdgeStyle;rounded=0;orthogonalLoop=1;jettySize=auto;html=1;dashed=1;strokeColor=#000000;entryX=1;entryY=0.5;entryDx=0;entryDy=0;" parent="1" source="SHjtx8wU5vL2sY_37cBv-51" target="1MLrccxjdp3mu_vWYp1V-32" edge="1">
          <mxGeometry relative="1" as="geometry">
            <mxPoint x="2080" y="-530" as="targetPoint" />
            <Array as="points">
              <mxPoint x="750" y="-180" />
              <mxPoint x="1990" y="-180" />
              <mxPoint x="1990" y="-720" />
            </Array>
          </mxGeometry>
        </mxCell>
        <mxCell id="SHjtx8wU5vL2sY_37cBv-339" style="edgeStyle=orthogonalEdgeStyle;rounded=0;orthogonalLoop=1;jettySize=auto;html=1;dashed=1;strokeColor=#999900;entryX=0.5;entryY=1;entryDx=0;entryDy=0;exitX=0.5;exitY=0;exitDx=0;exitDy=0;" parent="1" source="SHjtx8wU5vL2sY_37cBv-43" target="1MLrccxjdp3mu_vWYp1V-31" edge="1">
          <mxGeometry relative="1" as="geometry">
            <mxPoint x="760" y="-140" as="targetPoint" />
            <mxPoint x="830" y="220" as="sourcePoint" />
            <Array as="points">
              <mxPoint x="830" y="-80" />
              <mxPoint x="140" y="-80" />
            </Array>
          </mxGeometry>
        </mxCell>
        <mxCell id="SHjtx8wU5vL2sY_37cBv-340" style="edgeStyle=orthogonalEdgeStyle;rounded=0;orthogonalLoop=1;jettySize=auto;html=1;dashed=1;strokeColor=#999900;entryX=1;entryY=0.5;entryDx=0;entryDy=0;" parent="1" source="SHjtx8wU5vL2sY_37cBv-43" target="SHjtx8wU5vL2sY_37cBv-160" edge="1">
          <mxGeometry relative="1" as="geometry">
            <mxPoint x="1000" y="-60" as="targetPoint" />
            <Array as="points">
              <mxPoint x="830" y="-80" />
              <mxPoint x="1060" y="-80" />
              <mxPoint x="1060" y="-320" />
            </Array>
          </mxGeometry>
        </mxCell>
        <mxCell id="SHjtx8wU5vL2sY_37cBv-341" style="edgeStyle=orthogonalEdgeStyle;rounded=0;orthogonalLoop=1;jettySize=auto;html=1;dashed=1;strokeColor=#999900;entryX=1;entryY=0.5;entryDx=0;entryDy=0;" parent="1" source="SHjtx8wU5vL2sY_37cBv-43" target="SHjtx8wU5vL2sY_37cBv-158" edge="1">
          <mxGeometry relative="1" as="geometry">
            <mxPoint x="1070" y="-350" as="targetPoint" />
            <Array as="points">
              <mxPoint x="830" y="-80" />
              <mxPoint x="1060" y="-80" />
              <mxPoint x="1060" y="-480" />
            </Array>
          </mxGeometry>
        </mxCell>
        <mxCell id="SHjtx8wU5vL2sY_37cBv-342" style="edgeStyle=orthogonalEdgeStyle;rounded=0;orthogonalLoop=1;jettySize=auto;html=1;dashed=1;strokeColor=#999900;entryX=1;entryY=0.5;entryDx=0;entryDy=0;" parent="1" source="SHjtx8wU5vL2sY_37cBv-43" target="1MLrccxjdp3mu_vWYp1V-29" edge="1">
          <mxGeometry relative="1" as="geometry">
            <mxPoint x="1100" y="-290" as="targetPoint" />
            <Array as="points">
              <mxPoint x="830" y="-80" />
              <mxPoint x="1060" y="-80" />
              <mxPoint x="1060" y="-640" />
            </Array>
          </mxGeometry>
        </mxCell>
        <mxCell id="SHjtx8wU5vL2sY_37cBv-343" style="edgeStyle=orthogonalEdgeStyle;rounded=0;orthogonalLoop=1;jettySize=auto;html=1;dashed=1;strokeColor=#999900;entryX=1;entryY=0.5;entryDx=0;entryDy=0;" parent="1" source="SHjtx8wU5vL2sY_37cBv-43" target="SHjtx8wU5vL2sY_37cBv-185" edge="1">
          <mxGeometry relative="1" as="geometry">
            <mxPoint x="1550" y="-150" as="targetPoint" />
            <Array as="points">
              <mxPoint x="830" y="-80" />
              <mxPoint x="2000" y="-80" />
              <mxPoint x="2000" y="-400" />
            </Array>
          </mxGeometry>
        </mxCell>
        <mxCell id="SHjtx8wU5vL2sY_37cBv-344" style="edgeStyle=orthogonalEdgeStyle;rounded=0;orthogonalLoop=1;jettySize=auto;html=1;dashed=1;strokeColor=#999900;entryX=1;entryY=0.5;entryDx=0;entryDy=0;" parent="1" source="SHjtx8wU5vL2sY_37cBv-43" target="SHjtx8wU5vL2sY_37cBv-184" edge="1">
          <mxGeometry relative="1" as="geometry">
            <mxPoint x="2030" y="-220" as="targetPoint" />
            <Array as="points">
              <mxPoint x="830" y="-80" />
              <mxPoint x="2000" y="-80" />
              <mxPoint x="2000" y="-560" />
            </Array>
          </mxGeometry>
        </mxCell>
        <mxCell id="SHjtx8wU5vL2sY_37cBv-345" style="edgeStyle=orthogonalEdgeStyle;rounded=0;orthogonalLoop=1;jettySize=auto;html=1;dashed=1;strokeColor=#999900;entryX=1;entryY=0.375;entryDx=0;entryDy=0;entryPerimeter=0;" parent="1" source="SHjtx8wU5vL2sY_37cBv-43" target="1MLrccxjdp3mu_vWYp1V-32" edge="1">
          <mxGeometry relative="1" as="geometry">
            <mxPoint x="2020" y="-520" as="targetPoint" />
            <Array as="points">
              <mxPoint x="830" y="-80" />
              <mxPoint x="2000" y="-80" />
              <mxPoint x="2000" y="-730" />
            </Array>
          </mxGeometry>
        </mxCell>
        <mxCell id="SHjtx8wU5vL2sY_37cBv-346" style="edgeStyle=orthogonalEdgeStyle;rounded=0;orthogonalLoop=1;jettySize=auto;html=1;dashed=1;exitX=0.5;exitY=0;exitDx=0;exitDy=0;entryX=0.637;entryY=1.01;entryDx=0;entryDy=0;entryPerimeter=0;strokeColor=#3333FF;" parent="1" source="SHjtx8wU5vL2sY_37cBv-45" target="1MLrccxjdp3mu_vWYp1V-31" edge="1">
          <mxGeometry relative="1" as="geometry">
            <mxPoint x="160" y="-110" as="targetPoint" />
            <Array as="points">
              <mxPoint x="1000" y="-90" />
              <mxPoint x="159" y="-90" />
            </Array>
          </mxGeometry>
        </mxCell>
        <mxCell id="SHjtx8wU5vL2sY_37cBv-347" style="edgeStyle=orthogonalEdgeStyle;rounded=0;orthogonalLoop=1;jettySize=auto;html=1;dashed=1;entryX=1;entryY=0.3;entryDx=0;entryDy=0;strokeColor=#3333FF;" parent="1" source="SHjtx8wU5vL2sY_37cBv-45" target="SHjtx8wU5vL2sY_37cBv-160" edge="1">
          <mxGeometry relative="1" as="geometry">
            <mxPoint x="970" y="-240" as="targetPoint" />
            <Array as="points">
              <mxPoint x="1000" y="-90" />
              <mxPoint x="1070" y="-90" />
              <mxPoint x="1070" y="-336" />
            </Array>
          </mxGeometry>
        </mxCell>
        <mxCell id="SHjtx8wU5vL2sY_37cBv-348" style="edgeStyle=orthogonalEdgeStyle;rounded=0;orthogonalLoop=1;jettySize=auto;html=1;dashed=1;strokeColor=#3333FF;entryX=1;entryY=0.3;entryDx=0;entryDy=0;" parent="1" source="SHjtx8wU5vL2sY_37cBv-45" target="SHjtx8wU5vL2sY_37cBv-158" edge="1">
          <mxGeometry relative="1" as="geometry">
            <mxPoint x="1130" y="-330" as="targetPoint" />
            <Array as="points">
              <mxPoint x="1000" y="-90" />
              <mxPoint x="1070" y="-90" />
              <mxPoint x="1070" y="-496" />
            </Array>
          </mxGeometry>
        </mxCell>
        <mxCell id="SHjtx8wU5vL2sY_37cBv-349" style="edgeStyle=orthogonalEdgeStyle;rounded=0;orthogonalLoop=1;jettySize=auto;html=1;dashed=1;strokeColor=#3333FF;entryX=1;entryY=0.3;entryDx=0;entryDy=0;" parent="1" source="SHjtx8wU5vL2sY_37cBv-45" target="1MLrccxjdp3mu_vWYp1V-29" edge="1">
          <mxGeometry relative="1" as="geometry">
            <mxPoint x="1110" y="-560" as="targetPoint" />
            <Array as="points">
              <mxPoint x="1000" y="-90" />
              <mxPoint x="1070" y="-90" />
              <mxPoint x="1070" y="-656" />
            </Array>
          </mxGeometry>
        </mxCell>
        <mxCell id="SHjtx8wU5vL2sY_37cBv-350" style="edgeStyle=orthogonalEdgeStyle;rounded=0;orthogonalLoop=1;jettySize=auto;html=1;dashed=1;strokeColor=#3333FF;entryX=1;entryY=0.3;entryDx=0;entryDy=0;" parent="1" source="SHjtx8wU5vL2sY_37cBv-45" target="SHjtx8wU5vL2sY_37cBv-185" edge="1">
          <mxGeometry relative="1" as="geometry">
            <mxPoint x="2020" y="-420" as="targetPoint" />
            <Array as="points">
              <mxPoint x="1000" y="-90" />
              <mxPoint x="2020" y="-90" />
              <mxPoint x="2020" y="-416" />
            </Array>
          </mxGeometry>
        </mxCell>
        <mxCell id="SHjtx8wU5vL2sY_37cBv-351" style="edgeStyle=orthogonalEdgeStyle;rounded=0;orthogonalLoop=1;jettySize=auto;html=1;dashed=1;strokeColor=#3333FF;entryX=1;entryY=0.3;entryDx=0;entryDy=0;" parent="1" source="SHjtx8wU5vL2sY_37cBv-45" target="SHjtx8wU5vL2sY_37cBv-184" edge="1">
          <mxGeometry relative="1" as="geometry">
            <mxPoint x="2020" y="-570" as="targetPoint" />
            <Array as="points">
              <mxPoint x="1000" y="-90" />
              <mxPoint x="2020" y="-90" />
              <mxPoint x="2020" y="-576" />
            </Array>
          </mxGeometry>
        </mxCell>
        <mxCell id="SHjtx8wU5vL2sY_37cBv-352" style="edgeStyle=orthogonalEdgeStyle;rounded=0;orthogonalLoop=1;jettySize=auto;html=1;dashed=1;strokeColor=#3333FF;entryX=1;entryY=0.3;entryDx=0;entryDy=0;" parent="1" source="SHjtx8wU5vL2sY_37cBv-45" target="1MLrccxjdp3mu_vWYp1V-32" edge="1">
          <mxGeometry relative="1" as="geometry">
            <mxPoint x="2050" y="-620" as="targetPoint" />
            <Array as="points">
              <mxPoint x="1000" y="-90" />
              <mxPoint x="2020" y="-90" />
              <mxPoint x="2020" y="-736" />
            </Array>
          </mxGeometry>
        </mxCell>
      </root>
    </mxGraphModel>
  </diagram>
</mxfile>
